<svg xmlns="http://www.w3.org/2000/svg" width="30" height="31" viewBox="0 0 30 31" fill="none">
  <g clip-path="url(#clip0_1271_451)">
    <path d="M29.8017 14.7283L22.9837 7.91021C22.7388 7.62422 22.3084 7.59088 22.0224 7.83586C21.7364 8.08077 21.703 8.51119 21.948 8.79719C21.9709 8.82385 21.9957 8.84875 22.0224 8.87154L27.6745 14.5305H0.681785C0.305268 14.5305 0 14.8358 0 15.2124C0 15.589 0.305268 15.8942 0.681785 15.8942H27.6745L22.0224 21.5463C21.7364 21.7912 21.703 22.2217 21.948 22.5076C22.193 22.7936 22.6234 22.827 22.9093 22.582C22.936 22.5592 22.9609 22.5343 22.9837 22.5076L29.8018 15.6896C30.0661 15.4237 30.0661 14.9942 29.8017 14.7283Z" fill="#FFD28D"/>
  </g>
  <defs>
    <clipPath id="clip0_1271_451">
      <rect width="30" height="30" fill="white" transform="translate(0 0.208984)"/>
    </clipPath>
  </defs>
</svg>