<svg width="81" height="81" viewBox="0 0 81 81" fill="none" xmlns="http://www.w3.org/2000/svg">
<rect x="0.932617" y="0.741211" width="80" height="80" rx="40" fill="#FFD28D"/>
<path d="M26.8939 58.3883V57.1625L27.8745 57.0645C29.0186 56.9337 29.8848 56.7703 30.4732 56.5741C31.0942 56.3453 31.5192 55.8877 31.748 55.2013C31.9768 54.4821 32.0912 53.3217 32.0912 51.72V29.9501C32.0912 28.3158 31.9768 27.1553 31.748 26.4689C31.5192 25.7825 31.0942 25.3412 30.4732 25.1451C29.8848 24.9162 29.0186 24.7365 27.8745 24.6057L26.8939 24.5077V23.2819L34.1505 23.429H53.1747L53.2727 26.9592L53.665 31.4701H52.4882C52.2594 29.9992 51.9489 28.8224 51.5566 27.9398C51.1971 27.0573 50.6741 26.4035 49.9876 25.9786C49.3012 25.521 48.3696 25.2268 47.1928 25.096C46.0488 24.9326 44.5615 24.8509 42.731 24.8509H36.2589V39.2171H41.7504C42.4041 39.2171 42.9761 39.07 43.4665 38.7758C43.9568 38.4489 44.349 37.8605 44.6432 37.0106C44.9701 36.1608 45.1662 34.935 45.2316 33.3333H46.4574L46.3103 39.9035L46.4574 47.1601H45.2316C45.2316 44.7739 44.9374 43.0905 44.349 42.1099C43.7607 41.0966 42.8944 40.5899 41.7504 40.5899H36.2589V52.9949C36.2589 54.5639 36.6021 55.6099 37.2885 56.1329C37.975 56.6232 39.2498 56.8683 41.113 56.8683H45.6729C47.5688 56.8683 49.0397 56.6559 50.0857 56.2309C51.1644 55.806 51.9652 54.9561 52.4882 53.6813C53.0112 52.3738 53.3708 50.4616 53.5669 47.9446H54.7927L54.4495 53.8284L54.3024 58.2412H34.1505L26.8939 58.3883Z" fill="#040D10"/>
<path d="M26.8939 58.3883H26.2017V59.0947L26.9079 59.0804L26.8939 58.3883ZM26.8939 57.1625L26.825 56.4737L26.2017 56.5361V57.1625H26.8939ZM27.8745 57.0645L27.9434 57.7533L27.9531 57.7522L27.8745 57.0645ZM30.4732 56.5741L30.6921 57.2308L30.7023 57.2274L30.7125 57.2237L30.4732 56.5741ZM31.748 55.2013L32.4047 55.4202L32.4076 55.4111L31.748 55.2013ZM31.748 26.4689L31.0913 26.6878L31.0913 26.6878L31.748 26.4689ZM30.4732 25.1451L30.2223 25.7902L30.2432 25.7984L30.2647 25.8051L30.4732 25.1451ZM27.8745 24.6057L27.9531 23.9179L27.9434 23.9169L27.8745 24.6057ZM26.8939 24.5077H26.2017V25.1341L26.825 25.1964L26.8939 24.5077ZM26.8939 23.2819L26.9079 22.5898L26.2017 22.5755V23.2819H26.8939ZM34.1505 23.429L34.1365 24.1212H34.1505V23.429ZM53.1747 23.429L53.8666 23.4097L53.8479 22.7368H53.1747V23.429ZM53.2727 26.9592L52.5808 26.9784L52.5814 26.9988L52.5831 27.0192L53.2727 26.9592ZM53.665 31.4701V32.1623H54.42L54.3546 31.4101L53.665 31.4701ZM52.4882 31.4701L51.8042 31.5765L51.8954 32.1623H52.4882V31.4701ZM51.5566 27.9398L50.9156 28.201L50.9197 28.2111L50.9241 28.221L51.5566 27.9398ZM49.9876 25.9786L49.6037 26.5545L49.6134 26.561L49.6233 26.5671L49.9876 25.9786ZM47.1928 25.096L47.095 25.7813L47.1057 25.7828L47.1164 25.784L47.1928 25.096ZM36.2589 24.8509V24.1587H35.5666V24.8509H36.2589ZM36.2589 39.2171H35.5666V39.9093H36.2589V39.2171ZM43.4665 38.7758L43.8226 39.3693L43.8367 39.3609L43.8504 39.3517L43.4665 38.7758ZM44.6432 37.0106L43.9971 36.7622L43.9929 36.7731L43.9891 36.7842L44.6432 37.0106ZM45.2316 33.3333V32.6411H44.5671L44.54 33.3051L45.2316 33.3333ZM46.4574 33.3333L47.1494 33.3488L47.1653 32.6411H46.4574V33.3333ZM46.3103 39.9035L45.6182 39.888L45.6179 39.9028L45.6182 39.9175L46.3103 39.9035ZM46.4574 47.1601V47.8523H47.1638L47.1494 47.1461L46.4574 47.1601ZM45.2316 47.1601H44.5394V47.8523H45.2316V47.1601ZM44.349 42.1099L43.7504 42.4575L43.7555 42.466L44.349 42.1099ZM36.2589 40.5899V39.8977H35.5666V40.5899H36.2589ZM37.2885 56.1329L36.869 56.6835L36.8775 56.6899L36.8862 56.6961L37.2885 56.1329ZM50.0857 56.2309L49.832 55.5869L49.8252 55.5896L50.0857 56.2309ZM52.4882 53.6813L53.1287 53.944L53.1309 53.9384L52.4882 53.6813ZM53.5669 47.9446V47.2524H52.9266L52.8768 47.8909L53.5669 47.9446ZM54.7927 47.9446L55.4837 47.9849L55.5265 47.2524H54.7927V47.9446ZM54.4495 53.8284L53.7585 53.7881L53.7579 53.7967L53.7577 53.8053L54.4495 53.8284ZM54.3024 58.2412V58.9334H54.9719L54.9942 58.2643L54.3024 58.2412ZM34.1505 58.2412L34.1505 57.5489L34.1365 57.5491L34.1505 58.2412ZM27.5861 58.3883V57.1625H26.2017V58.3883H27.5861ZM26.9627 57.8513L27.9434 57.7532L27.8056 56.3757L26.825 56.4737L26.9627 57.8513ZM27.9531 57.7522C29.1117 57.6198 30.0347 57.4499 30.6921 57.2308L30.2543 55.9175C29.7349 56.0906 28.9254 56.2476 27.7959 56.3767L27.9531 57.7522ZM30.7125 57.2237C31.5509 56.9148 32.1164 56.2848 32.4047 55.4202L31.0913 54.9824C30.9219 55.4906 30.6375 55.7759 30.2339 55.9246L30.7125 57.2237ZM32.4076 55.4111C32.6709 54.5835 32.7834 53.3316 32.7834 51.72H31.399C31.399 53.3119 31.2826 54.3808 31.0884 54.9914L32.4076 55.4111ZM32.7834 51.72V29.9501H31.399V51.72H32.7834ZM32.7834 29.9501C32.7834 28.3111 32.6719 27.0518 32.4047 26.25L31.0913 26.6878C31.2816 27.2589 31.399 28.3204 31.399 29.9501H32.7834ZM32.4047 26.25C32.1147 25.3802 31.5399 24.756 30.6816 24.485L30.2647 25.8051C30.6485 25.9263 30.9236 26.1847 31.0913 26.6878L32.4047 26.25ZM30.724 24.4999C30.0524 24.2387 29.1162 24.0509 27.9531 23.918L27.7959 25.2934C28.9209 25.422 29.7172 25.5938 30.2223 25.7902L30.724 24.4999ZM27.9434 23.9169L26.9627 23.8189L26.825 25.1964L27.8056 25.2945L27.9434 23.9169ZM27.5861 24.5077V23.2819H26.2017V24.5077H27.5861ZM26.8798 23.9739L34.1365 24.121L34.1645 22.7369L26.9079 22.5898L26.8798 23.9739ZM34.1505 24.1212H53.1747V22.7368H34.1505V24.1212ZM52.4827 23.4482L52.5808 26.9784L53.9647 26.94L53.8666 23.4097L52.4827 23.4482ZM52.5831 27.0192L52.9754 31.5301L54.3546 31.4101L53.9623 26.8993L52.5831 27.0192ZM53.665 30.7779H52.4882V32.1623H53.665V30.7779ZM53.1722 31.3637C52.9385 29.8613 52.6157 28.6185 52.1892 27.6587L50.9241 28.221C51.282 29.0263 51.5803 30.137 51.8042 31.5765L53.1722 31.3637ZM52.1977 27.6787C51.7931 26.6857 51.1843 25.9053 50.352 25.39L49.6233 26.5671C50.1639 26.9018 50.601 27.4289 50.9156 28.201L52.1977 27.6787ZM50.3716 25.4026C49.5618 24.8628 48.5114 24.5461 47.2693 24.4081L47.1164 25.784C48.2278 25.9075 49.0406 26.1791 49.6037 26.5545L50.3716 25.4026ZM47.2907 24.4108C46.1012 24.2408 44.5777 24.1587 42.731 24.1587V25.5431C44.5453 25.5431 45.9964 25.6243 47.095 25.7813L47.2907 24.4108ZM42.731 24.1587H36.2589V25.5431H42.731V24.1587ZM35.5666 24.8509V39.2171H36.9511V24.8509H35.5666ZM36.2589 39.9093H41.7504V38.5248H36.2589V39.9093ZM41.7504 39.9093C42.5112 39.9093 43.21 39.7369 43.8226 39.3693L43.1103 38.1822C42.7423 38.403 42.297 38.5248 41.7504 38.5248V39.9093ZM43.8504 39.3517C44.5173 38.9071 44.9783 38.1588 45.2973 37.2371L43.9891 36.7842C43.7198 37.5623 43.3962 37.9907 43.0825 38.1998L43.8504 39.3517ZM45.2893 37.2591C45.6564 36.3047 45.8567 34.9904 45.9232 33.3615L44.54 33.3051C44.4757 34.8795 44.2838 36.0168 43.9971 36.7622L45.2893 37.2591ZM45.2316 34.0255H46.4574V32.6411H45.2316V34.0255ZM45.7653 33.3178L45.6182 39.888L47.0023 39.919L47.1494 33.3488L45.7653 33.3178ZM45.6182 39.9175L45.7653 47.1742L47.1494 47.1461L47.0023 39.8895L45.6182 39.9175ZM46.4574 46.4679H45.2316V47.8523H46.4574V46.4679ZM45.9238 47.1601C45.9238 44.7577 45.6349 42.9077 44.9426 41.7538L43.7555 42.466C44.2399 43.2734 44.5394 44.7901 44.5394 47.1601H45.9238ZM44.9476 41.7623C44.2391 40.542 43.1484 39.8977 41.7504 39.8977V41.2821C42.6405 41.2821 43.2822 41.6511 43.7504 42.4575L44.9476 41.7623ZM41.7504 39.8977H36.2589V41.2821H41.7504V39.8977ZM35.5666 40.5899V52.9949H36.9511V40.5899H35.5666ZM35.5666 52.9949C35.5666 54.6121 35.911 55.9535 36.869 56.6835L37.708 55.5823C37.2932 55.2662 36.9511 54.5156 36.9511 52.9949H35.5666ZM36.8862 56.6961C37.3423 57.022 37.941 57.232 38.6287 57.3642C39.3233 57.4978 40.1547 57.5605 41.113 57.5605V56.1761C40.208 56.1761 39.4704 56.1163 38.8902 56.0047C38.3031 55.8918 37.9211 55.7341 37.6909 55.5696L36.8862 56.6961ZM41.113 57.5605H45.6729V56.1761H41.113V57.5605ZM45.6729 57.5605C47.6057 57.5605 49.1798 57.3461 50.3462 56.8722L49.8252 55.5896C48.8995 55.9657 47.5319 56.1761 45.6729 56.1761V57.5605ZM50.3394 56.875C51.6263 56.368 52.5486 55.3578 53.1286 53.944L51.8478 53.4186C51.3818 54.5545 50.7024 55.244 49.832 55.5869L50.3394 56.875ZM53.1309 53.9384C53.6928 52.5337 54.0591 50.5391 54.257 47.9984L52.8768 47.8909C52.6825 50.384 52.3297 52.2139 51.8455 53.4242L53.1309 53.9384ZM53.5669 48.6368H54.7927V47.2524H53.5669V48.6368ZM54.1017 47.9043L53.7585 53.7881L55.1405 53.8687L55.4837 47.9849L54.1017 47.9043ZM53.7577 53.8053L53.6106 58.2182L54.9942 58.2643L55.1413 53.8515L53.7577 53.8053ZM54.3024 57.549H34.1505V58.9334H54.3024V57.549ZM34.1365 57.5491L26.8798 57.6962L26.9079 59.0804L34.1645 58.9333L34.1365 57.5491Z" fill="#001528"/>
</svg>
