  <svg width="101" height="17" viewBox="0 0 101 17" fill="none"
                                            xmlns="http://www.w3.org/2000/svg">
                                            <path
                                                d="M92.617 2.05364L94.5736 5.93036L98.3394 6.30347C98.4291 6.31092 98.5147 6.3439 98.5862 6.39852C98.6577 6.45313 98.712 6.52709 98.7428 6.61163C98.7736 6.69618 98.7795 6.78777 98.7598 6.87556C98.7401 6.96335 98.6957 7.04366 98.6318 7.10699L95.5326 10.179L96.6817 14.3534C96.7052 14.4419 96.7026 14.5354 96.6743 14.6225C96.6459 14.7096 96.593 14.7867 96.5219 14.8444C96.4508 14.9022 96.3646 14.9382 96.2735 14.9481C96.1824 14.958 96.0904 14.9413 96.0086 14.9002L92.1908 13.0095L88.3782 14.8978C88.2963 14.939 88.2044 14.9556 88.1133 14.9457C88.0222 14.9359 87.936 14.8999 87.8649 14.8421C87.7938 14.7843 87.7409 14.7073 87.7125 14.6202C87.6842 14.533 87.6816 14.4396 87.7051 14.351L88.8542 10.1767L85.7526 7.10466C85.6888 7.04132 85.6443 6.96101 85.6247 6.87322C85.605 6.78543 85.6109 6.69384 85.6417 6.60929C85.6724 6.52475 85.7268 6.45079 85.7983 6.39618C85.8697 6.34156 85.9554 6.30858 86.045 6.30113L89.8108 5.92802L91.7645 2.05364C91.8047 1.97516 91.8657 1.9093 91.9409 1.8633C92.0162 1.81731 92.1026 1.79297 92.1908 1.79297C92.2789 1.79297 92.3654 1.81731 92.4406 1.8633C92.5158 1.9093 92.5769 1.97516 92.617 2.05364V2.05364Z"
                                                stroke="#FFD28D" stroke-width="0.986842" stroke-linecap="round"
                                                stroke-linejoin="round" />
                                            <path
                                                d="M71.5624 2.05364L73.5189 5.93036L77.2847 6.30347C77.3744 6.31092 77.46 6.3439 77.5315 6.39852C77.603 6.45313 77.6573 6.52709 77.6881 6.61163C77.7189 6.69618 77.7248 6.78777 77.7051 6.87556C77.6854 6.96335 77.641 7.04366 77.5771 7.107L74.4779 10.179L75.627 14.3534C75.6505 14.4419 75.6479 14.5354 75.6196 14.6225C75.5912 14.7096 75.5383 14.7867 75.4672 14.8444C75.3961 14.9022 75.3099 14.9382 75.2188 14.9481C75.1277 14.958 75.0358 14.9413 74.9539 14.9002L71.1361 13.0095L67.3235 14.8978C67.2417 14.939 67.1497 14.9556 67.0586 14.9457C66.9675 14.9359 66.8813 14.8999 66.8102 14.8421C66.7391 14.7843 66.6862 14.7073 66.6578 14.6202C66.6295 14.533 66.6269 14.4396 66.6504 14.351L67.7995 10.1767L64.698 7.10466C64.6341 7.04132 64.5897 6.96101 64.57 6.87322C64.5503 6.78543 64.5562 6.69384 64.587 6.60929C64.6177 6.52475 64.6721 6.45079 64.7436 6.39618C64.815 6.34156 64.9007 6.30858 64.9903 6.30113L68.7561 5.92802L70.7098 2.05364C70.75 1.97516 70.811 1.9093 70.8863 1.8633C70.9615 1.81731 71.0479 1.79297 71.1361 1.79297C71.2242 1.79297 71.3107 1.81731 71.3859 1.8633C71.4611 1.9093 71.5222 1.97516 71.5624 2.05364Z"
                                                fill="#FFD28D" stroke="#FFD28D" stroke-width="0.986842"
                                                stroke-linecap="round" stroke-linejoin="round" />
                                            <g clip-path="url(#clip0_1166_642)">
                                                <path
                                                    d="M50.5116 2.05364L52.4682 5.93036L56.234 6.30347C56.3236 6.31092 56.4092 6.3439 56.4807 6.39852C56.5522 6.45313 56.6066 6.52709 56.6373 6.61163C56.6681 6.69618 56.674 6.78777 56.6543 6.87556C56.6346 6.96335 56.5902 7.04366 56.5263 7.107L53.4272 10.179L54.5762 14.3534C54.5997 14.4419 54.5971 14.5354 54.5688 14.6225C54.5405 14.7096 54.4876 14.7867 54.4165 14.8444C54.3454 14.9022 54.2591 14.9382 54.168 14.9481C54.077 14.958 53.985 14.9413 53.9031 14.9002L50.0853 13.0095L46.2727 14.8978C46.1909 14.939 46.0989 14.9556 46.0078 14.9457C45.9168 14.9359 45.8305 14.8999 45.7594 14.8421C45.6883 14.7843 45.6354 14.7073 45.6071 14.6202C45.5787 14.533 45.5762 14.4396 45.5997 14.351L46.7487 10.1767L43.6472 7.10466C43.5833 7.04132 43.5389 6.96101 43.5192 6.87322C43.4995 6.78543 43.5054 6.69384 43.5362 6.60929C43.567 6.52475 43.6213 6.45079 43.6928 6.39618C43.7643 6.34156 43.8499 6.30858 43.9396 6.30113L47.7054 5.92802L49.659 2.05364C49.6992 1.97516 49.7603 1.9093 49.8355 1.8633C49.9107 1.81731 49.9971 1.79297 50.0853 1.79297C50.1735 1.79297 50.2599 1.81731 50.3351 1.8633C50.4103 1.9093 50.4714 1.97516 50.5116 2.05364Z"
                                                    fill="#FFD28D" stroke="#FFD28D" stroke-width="0.986842"
                                                    stroke-linecap="round" stroke-linejoin="round" />
                                            </g>
                                            <g clip-path="url(#clip1_1166_642)">
                                                <path
                                                    d="M29.4569 2.05364L31.4135 5.93036L35.1793 6.30347C35.2689 6.31092 35.3546 6.3439 35.426 6.39852C35.4975 6.45313 35.5519 6.52709 35.5826 6.61163C35.6134 6.69618 35.6193 6.78777 35.5996 6.87556C35.58 6.96335 35.5355 7.04366 35.4717 7.107L32.3725 10.179L33.5215 14.3534C33.545 14.4419 33.5424 14.5354 33.5141 14.6225C33.4858 14.7096 33.4329 14.7867 33.3618 14.8444C33.2907 14.9022 33.2044 14.9382 33.1133 14.9481C33.0223 14.958 32.9303 14.9413 32.8485 14.9002L29.0306 13.0095L25.218 14.8978C25.1362 14.939 25.0442 14.9556 24.9531 14.9457C24.8621 14.9359 24.7758 14.8999 24.7047 14.8421C24.6336 14.7843 24.5807 14.7073 24.5524 14.6202C24.524 14.533 24.5215 14.4396 24.545 14.351L25.694 10.1767L22.5925 7.10466C22.5286 7.04132 22.4842 6.96101 22.4645 6.87322C22.4448 6.78543 22.4507 6.69384 22.4815 6.60929C22.5123 6.52475 22.5666 6.45079 22.6381 6.39618C22.7096 6.34156 22.7952 6.30858 22.8849 6.30113L26.6507 5.92802L28.6043 2.05364C28.6445 1.97516 28.7056 1.9093 28.7808 1.8633C28.856 1.81731 28.9424 1.79297 29.0306 1.79297C29.1188 1.79297 29.2052 1.81731 29.2804 1.8633C29.3557 1.9093 29.4167 1.97516 29.4569 2.05364Z"
                                                    fill="#FFD28D" stroke="#FFD28D" stroke-width="0.986842"
                                                    stroke-linecap="round" stroke-linejoin="round" />
                                            </g>
                                            <g clip-path="url(#clip2_1166_642)">
                                                <path
                                                    d="M8.40611 2.05364L10.3627 5.93036L14.1285 6.30347C14.2181 6.31092 14.3038 6.3439 14.3753 6.39852C14.4468 6.45313 14.5011 6.52709 14.5319 6.61163C14.5626 6.69618 14.5685 6.78777 14.5488 6.87556C14.5292 6.96335 14.4848 7.04366 14.4209 7.107L11.3217 10.179L12.4707 14.3534C12.4942 14.4419 12.4917 14.5354 12.4633 14.6225C12.435 14.7096 12.3821 14.7867 12.311 14.8444C12.2399 14.9022 12.1536 14.9382 12.0626 14.9481C11.9715 14.958 11.8795 14.9413 11.7977 14.9002L7.97983 13.0095L4.16725 14.8978C4.08541 14.939 3.99343 14.9556 3.90236 14.9457C3.8113 14.9359 3.72502 14.8999 3.65393 14.8421C3.58283 14.7843 3.52993 14.7073 3.50159 14.6202C3.47326 14.533 3.47069 14.4396 3.4942 14.351L4.64323 10.1767L1.54171 7.10466C1.47782 7.04132 1.4334 6.96101 1.41373 6.87322C1.39406 6.78543 1.39996 6.69384 1.43072 6.60929C1.46148 6.52475 1.51583 6.45079 1.58731 6.39618C1.6588 6.34156 1.74444 6.30858 1.83409 6.30113L5.59989 5.92802L7.55354 2.05364C7.59372 1.97516 7.65478 1.9093 7.73 1.8633C7.80522 1.81731 7.89167 1.79297 7.97983 1.79297C8.06799 1.79297 8.15444 1.81731 8.22966 1.8633C8.30487 1.9093 8.36593 1.97516 8.40611 2.05364Z"
                                                    fill="#FFD28D" stroke="#FFD28D" stroke-width="0.986842"
                                                    stroke-linecap="round" stroke-linejoin="round" />
                                            </g>
                                            <defs>
                                                <clipPath id="clip0_1166_642">
                                                    <rect width="15.7895" height="15.7895" fill="white"
                                                        transform="translate(42.1914 0.476562)" />
                                                </clipPath>
                                                <clipPath id="clip1_1166_642">
                                                    <rect width="15.7895" height="15.7895" fill="white"
                                                        transform="translate(21.1387 0.476562)" />
                                                </clipPath>
                                                <clipPath id="clip2_1166_642">
                                                    <rect width="15.7895" height="15.7895" fill="white"
                                                        transform="translate(0.0859375 0.476562)" />
                                                </clipPath>
                                            </defs>
                                        </svg>