<svg width="209" height="21" viewBox="0 0 209 21" fill="none" xmlns="http://www.w3.org/2000/svg">
<path d="M7.66118 10.6166C6.97213 10.151 6.37619 9.74755 5.79887 9.37508C5.22156 9.00262 4.58837 8.59291 3.97381 8.20804C3.35925 7.82316 2.73227 7.4569 2.1115 7.07823C1.49073 6.69956 0.869962 6.37057 0.249193 5.92982L0.367141 5.75599C0.547164 5.69391 0.658892 5.81808 0.783046 5.88636L3.46477 7.3638C4.86771 8.12114 6.27687 8.86606 7.72326 9.53649C7.835 9.58615 7.95294 9.62962 8.04605 9.66687C8.10222 9.64858 8.15029 9.61133 8.182 9.5615C8.21371 9.51166 8.22709 9.45235 8.21987 9.39373L8.37506 6.84855C8.46818 5.10419 8.51163 3.36604 8.51163 1.62168C8.49072 1.44055 8.50549 1.25708 8.55509 1.08162C8.58195 1.03941 8.62419 1.00932 8.67287 0.997732C8.72154 0.986143 8.7728 0.993942 8.8158 1.01952C8.90319 1.23372 8.929 1.46809 8.89031 1.69617C8.89031 2.5218 8.89031 3.35363 8.89031 4.17925C8.9648 5.89878 9.06411 7.61831 9.15102 9.33784C9.14407 9.39378 9.15059 9.45058 9.17002 9.50349C9.18946 9.5564 9.22125 9.60387 9.26276 9.64201C9.43036 9.70409 9.56694 9.57374 9.71592 9.50546C11.3548 8.74191 12.9439 7.89146 14.5331 7.02238L16.4264 5.97328C16.594 5.88017 16.7679 5.79945 16.9169 5.72496C16.9673 5.73495 17.0127 5.76203 17.0455 5.80161C17.0783 5.84118 17.0964 5.89086 17.0969 5.94225C16.8765 6.13116 16.6349 6.29364 16.3768 6.42643C14.5455 7.51278 12.7329 8.61775 10.9637 9.80342C10.5788 10.0641 10.1939 10.3249 9.82146 10.5856C9.82146 10.7967 9.98906 10.8401 10.1008 10.9208C11.6341 11.9947 13.2046 12.988 14.8186 13.9626L16.892 15.2041C16.9603 15.2476 17.0286 15.2972 17.0782 15.3345C17.1279 15.3717 17.0783 15.5331 16.9603 15.5766C16.7555 15.5347 16.5625 15.4478 16.3954 15.3221C14.4752 14.2295 12.5259 13.1949 10.5478 12.2182C10.1318 12.0072 9.70971 11.8209 9.30621 11.6347C9.25279 11.6627 9.20892 11.7061 9.18018 11.7591C9.15144 11.8122 9.13912 11.8726 9.14481 11.9327L8.97721 14.7385C8.87788 16.4146 8.85927 18.0969 8.84685 19.773C8.88363 19.9664 8.85064 20.1665 8.75374 20.3379L8.59233 20.3379C8.45576 20.2386 8.48059 20.102 8.47439 19.9778C8.47439 19.1708 8.47439 18.3638 8.44336 17.5568C8.40611 16.067 8.35644 14.5833 8.23849 13.0935C8.23849 12.7583 8.20745 12.4168 8.18262 12.0754C8.2007 11.9291 8.17703 11.7806 8.11435 11.6471C7.97157 11.5913 7.86603 11.6843 7.75429 11.7402C5.83818 12.659 3.95312 13.6377 2.09909 14.6764C1.63352 14.9372 1.16794 15.1917 0.702362 15.4462C0.590624 15.5083 0.491302 15.5952 0.354733 15.5703C0.218164 15.5455 0.236771 15.4524 0.261602 15.3159C1.50935 14.5771 2.75089 13.8198 3.99243 13.0562C5.23397 12.2927 6.43206 11.5354 7.66118 10.6166ZM8.93996 11.0636C9.20689 11.0636 9.36209 11.2126 9.56073 11.3057C9.75938 11.3988 9.93319 11.5105 10.1194 11.6161L10.6781 11.914L11.2989 12.243L11.8638 12.541C12.0771 12.6778 12.3156 12.7706 12.5653 12.8141C12.2549 12.6031 12.0748 12.4665 11.8824 12.3486C11.0506 11.8333 10.2125 11.3305 9.39933 10.8153C9.31242 10.7656 9.20689 10.7222 9.23172 10.5546L10.2436 9.93379C10.5726 9.73515 10.9016 9.54271 11.2244 9.31302C11.5736 9.1257 11.9042 8.90535 12.2114 8.65501C12.0314 8.5681 11.9383 8.65501 11.8327 8.73571L9.25035 10.12C9.16344 10.1635 9.07654 10.2504 8.94618 10.1635L8.77236 5.9174C8.69166 6.62507 8.65441 7.33895 8.61096 8.04663C8.5675 8.75431 8.61096 9.48063 8.53647 10.2442C8.15606 10.0739 7.78513 9.88327 7.42528 9.67304C6.80451 9.33162 6.15272 8.99022 5.51332 8.65501C5.49526 8.64014 5.47416 8.62936 5.45153 8.62345C5.42889 8.61753 5.40524 8.61662 5.38221 8.62076C5.35918 8.62489 5.33733 8.63398 5.31816 8.64739C5.29899 8.66081 5.28298 8.67824 5.27121 8.69847C6.28307 9.31924 7.28872 9.94001 8.30679 10.5608C8.20746 10.7594 8.03364 10.8029 7.89707 10.896C7.76051 10.9891 7.64876 11.0574 7.5184 11.1319C7.38803 11.2064 7.22043 11.2995 7.07765 11.3864C6.93488 11.4733 6.78589 11.5664 6.64311 11.6533L6.20858 11.9264L5.8299 12.1561C5.68713 12.2492 5.53815 12.3361 5.40778 12.4355C5.23178 12.5216 5.08499 12.6576 4.98567 12.8266L5.53195 12.5472L8.22608 11.0946C8.27741 11.0599 8.33794 11.0414 8.3999 11.0414C8.46185 11.0414 8.52238 11.0599 8.57371 11.0946C8.57371 12.4665 8.66683 13.8571 8.74753 15.2538C8.79719 14.8006 8.80959 14.3413 8.83442 13.8881L8.90272 12.4231C8.88166 11.9692 8.90035 11.5143 8.95858 11.0636L8.93996 11.0636Z" fill="#FFD28D"/>
<path d="M198.657 10.6166C197.968 10.151 197.372 9.74755 196.794 9.37508C196.217 9.00262 195.584 8.59291 194.969 8.20804C194.355 7.82316 193.728 7.4569 193.107 7.07823C192.486 6.69956 191.866 6.37057 191.245 5.92982L191.363 5.75599C191.543 5.69391 191.654 5.81808 191.779 5.88636L194.46 7.3638C195.863 8.12114 197.272 8.86606 198.719 9.53649C198.831 9.58615 198.949 9.62962 199.042 9.66687C199.098 9.64858 199.146 9.61133 199.178 9.5615C199.209 9.51166 199.223 9.45235 199.215 9.39373L199.371 6.84855C199.464 5.10419 199.507 3.36604 199.507 1.62168C199.486 1.44055 199.501 1.25708 199.551 1.08162C199.578 1.03941 199.62 1.00932 199.668 0.997732C199.717 0.986143 199.768 0.993942 199.811 1.01952C199.899 1.23372 199.925 1.46809 199.886 1.69617C199.886 2.5218 199.886 3.35363 199.886 4.17925C199.96 5.89878 200.06 7.61831 200.147 9.33784C200.14 9.39378 200.146 9.45058 200.166 9.50349C200.185 9.5564 200.217 9.60387 200.258 9.64201C200.426 9.70409 200.563 9.57374 200.712 9.50546C202.35 8.74191 203.94 7.89146 205.529 7.02238L207.422 5.97328C207.59 5.88017 207.763 5.79945 207.912 5.72496C207.963 5.73495 208.008 5.76203 208.041 5.80161C208.074 5.84118 208.092 5.89086 208.092 5.94225C207.872 6.13116 207.63 6.29364 207.372 6.42643C205.541 7.51278 203.728 8.61775 201.959 9.80342C201.574 10.0641 201.19 10.3249 200.817 10.5856C200.817 10.7967 200.985 10.8401 201.096 10.9208C202.63 11.9947 204.2 12.988 205.814 13.9626L207.888 15.2041C207.956 15.2476 208.024 15.2972 208.074 15.3345C208.124 15.3717 208.074 15.5331 207.956 15.5766C207.751 15.5347 207.558 15.4478 207.391 15.3221C205.471 14.2295 203.522 13.1949 201.543 12.2182C201.127 12.0072 200.705 11.8209 200.302 11.6347C200.248 11.6627 200.205 11.7061 200.176 11.7591C200.147 11.8122 200.135 11.8726 200.14 11.9327L199.973 14.7385C199.873 16.4146 199.855 18.0969 199.842 19.773C199.879 19.9664 199.846 20.1665 199.749 20.3379L199.588 20.3379C199.451 20.2386 199.476 20.102 199.47 19.9778C199.47 19.1708 199.47 18.3638 199.439 17.5568C199.402 16.067 199.352 14.5833 199.234 13.0935C199.234 12.7583 199.203 12.4168 199.178 12.0754C199.196 11.9291 199.173 11.7806 199.11 11.6471C198.967 11.5913 198.862 11.6843 198.75 11.7402C196.834 12.659 194.949 13.6377 193.095 14.6764C192.629 14.9372 192.164 15.1917 191.698 15.4462C191.586 15.5083 191.487 15.5952 191.35 15.5703C191.214 15.5455 191.232 15.4524 191.257 15.3159C192.505 14.5771 193.746 13.8198 194.988 13.0562C196.23 12.2927 197.428 11.5354 198.657 10.6166ZM199.936 11.0636C200.202 11.0636 200.358 11.2126 200.556 11.3057C200.755 11.3988 200.929 11.5105 201.115 11.6161L201.674 11.914L202.294 12.243L202.859 12.541C203.073 12.6778 203.311 12.7706 203.561 12.8141C203.25 12.6031 203.07 12.4665 202.878 12.3486C202.046 11.8333 201.208 11.3305 200.395 10.8153C200.308 10.7656 200.202 10.7222 200.227 10.5546L201.239 9.93379C201.568 9.73515 201.897 9.54271 202.22 9.31302C202.569 9.1257 202.9 8.90535 203.207 8.65501C203.027 8.5681 202.934 8.65501 202.828 8.73571L200.246 10.12C200.159 10.1635 200.072 10.2504 199.942 10.1635L199.768 5.9174C199.687 6.62507 199.65 7.33895 199.607 8.04663C199.563 8.75431 199.607 9.48063 199.532 10.2442C199.152 10.0739 198.781 9.88327 198.421 9.67304C197.8 9.33162 197.148 8.99022 196.509 8.65501C196.491 8.64014 196.47 8.62936 196.447 8.62345C196.424 8.61753 196.401 8.61662 196.378 8.62076C196.355 8.62489 196.333 8.63398 196.314 8.64739C196.295 8.66081 196.279 8.67824 196.267 8.69847C197.279 9.31924 198.284 9.94001 199.302 10.5608C199.203 10.7594 199.029 10.8029 198.893 10.896C198.756 10.9891 198.644 11.0574 198.514 11.1319C198.384 11.2064 198.216 11.2995 198.073 11.3864C197.93 11.4733 197.781 11.5664 197.639 11.6533L197.204 11.9264L196.826 12.1561C196.683 12.2492 196.534 12.3361 196.403 12.4355C196.227 12.5216 196.081 12.6576 195.981 12.8266L196.528 12.5472L199.222 11.0946C199.273 11.0599 199.334 11.0414 199.396 11.0414C199.457 11.0414 199.518 11.0599 199.569 11.0946C199.569 12.4665 199.662 13.8571 199.743 15.2538C199.793 14.8006 199.805 14.3413 199.83 13.8881L199.898 12.4231C199.877 11.9692 199.896 11.5143 199.954 11.0636L199.936 11.0636Z" fill="#FFD28D"/>
<path d="M135.552 11.6281C135.493 11.671 135.446 11.7297 135.417 11.7977C135.389 11.8656 135.38 11.9402 135.391 12.013C135.329 13.118 135.286 14.2229 135.211 15.3279C135.118 16.7681 135.124 18.2145 135.106 19.6733C135.128 19.8823 135.107 20.0936 135.043 20.2941C135.021 20.3101 134.996 20.3214 134.97 20.3273C134.943 20.3332 134.915 20.3336 134.889 20.3283C134.862 20.3231 134.836 20.3124 134.814 20.2969C134.791 20.2814 134.772 20.2614 134.758 20.2382C134.723 20.002 134.71 19.7629 134.721 19.5243C134.721 18.6552 134.721 17.7799 134.69 16.9109C134.615 15.2534 134.522 13.6022 134.429 11.9447C134.422 11.867 134.407 11.7901 134.385 11.715C134.174 11.6095 134.038 11.7461 133.895 11.8144C132.262 12.5903 130.655 13.4222 129.072 14.2974L126.719 15.601C126.665 15.6033 126.611 15.5856 126.569 15.5513C126.527 15.5171 126.498 15.4685 126.489 15.4148C126.515 15.3629 126.551 15.3165 126.595 15.2782C127.321 14.8313 128.047 14.3967 128.774 13.956C130.429 12.971 132.039 11.9364 133.603 10.8522L133.79 10.6908C132.668 9.77369 131.47 8.95535 130.208 8.24494L126.52 5.99776C126.504 5.95499 126.501 5.90823 126.512 5.86382C126.523 5.81941 126.548 5.77948 126.582 5.74943C126.694 5.69977 126.787 5.74943 126.874 5.82392C127.6 6.22122 128.327 6.62472 129.053 7.02822C130.673 7.91592 132.306 8.7788 133.982 9.56097L134.267 9.68513C134.319 9.66512 134.363 9.62885 134.392 9.5818C134.421 9.53476 134.434 9.47947 134.429 9.42438C134.472 8.80361 134.541 8.15183 134.559 7.51865C134.628 5.65634 134.739 3.79403 134.721 1.93173C134.704 1.65184 134.717 1.37098 134.758 1.09366C134.771 1.07106 134.789 1.05144 134.81 1.03596C134.831 1.02048 134.855 1.00949 134.881 1.00368C134.907 0.997865 134.933 0.997324 134.959 1.00212C134.985 1.00693 135.009 1.01697 135.031 1.0316C135.059 1.08177 135.078 1.13639 135.087 1.19301L135.124 3.6202C135.124 5.17212 135.217 6.72404 135.335 8.26975C135.335 8.58635 135.366 8.89055 135.385 9.22576C135.375 9.3751 135.402 9.52455 135.466 9.66027C135.602 9.75959 135.708 9.66029 135.813 9.59821C137.471 8.82846 139.085 7.978 140.692 7.11513C141.363 6.74888 142.027 6.36401 142.698 5.99776C142.846 5.88308 143.021 5.80827 143.207 5.78046C143.3 5.82392 143.331 5.89843 143.318 6.035C140.879 7.51864 138.389 8.97744 136.055 10.6473C136.055 10.8397 136.211 10.877 136.31 10.9453C138.073 12.1868 139.892 13.3104 141.735 14.4092L143.151 15.2658C143.221 15.3143 143.288 15.3682 143.349 15.4272L143.269 15.5948C143.144 15.6631 143.051 15.5948 142.964 15.5452C142.238 15.1479 141.512 14.7444 140.786 14.3409C139.184 13.4532 137.558 12.6276 135.913 11.8578C135.801 11.6902 135.677 11.6902 135.552 11.6281ZM131.083 12.8014L131.145 12.8883C131.722 12.5841 132.3 12.2675 132.883 11.9757C133.474 11.6238 134.083 11.3047 134.708 11.0198C134.708 11.1563 134.739 11.2619 134.739 11.3674L134.857 14.5519L134.857 15.3217C134.938 14.6202 134.988 13.925 135.019 13.2235L135.074 11.0632C135.234 11.0608 135.39 11.1134 135.515 11.2122C136.471 11.7212 137.421 12.2365 138.383 12.7393C138.47 12.789 138.569 12.9255 138.731 12.8076C138.16 12.4475 137.601 12.0999 137.049 11.7399C136.496 11.3798 135.875 11.0818 135.341 10.6846C135.404 10.5169 135.528 10.4735 135.633 10.4052C135.739 10.3369 135.85 10.2748 135.962 10.2066L136.291 10.0079C136.397 9.94584 136.508 9.88996 136.62 9.82168L136.999 9.57957L137.322 9.37474C137.427 9.30646 137.539 9.24438 137.651 9.1823C137.762 9.12023 137.868 9.04572 137.967 8.97123C138.067 8.89673 138.197 8.88432 138.203 8.66084C137.644 8.92157 137.148 9.1947 136.651 9.46783C136.155 9.74097 135.646 10.0141 135.143 10.2935C135.068 10.1798 135.038 10.0432 135.056 9.90859L134.944 6.72405L134.913 6.01636C134.826 6.72404 134.795 7.41931 134.745 8.12078C134.696 8.82225 134.745 9.51751 134.671 10.2376C134.337 10.1431 134.019 9.9987 133.727 9.80925L131.766 8.75397C131.748 8.73945 131.728 8.72908 131.706 8.72366C131.684 8.71825 131.661 8.71793 131.639 8.72271C131.617 8.7275 131.596 8.73726 131.578 8.75128C131.56 8.7653 131.546 8.7832 131.536 8.80361L132.989 9.71616C133.502 10.003 133.997 10.3202 134.472 10.6659C133.901 11.057 133.324 11.3612 132.771 11.7088L131.083 12.8014Z" fill="#FFD28D"/>
<path d="M74.421 10.7261C75.11 11.1855 75.706 11.5952 76.2833 11.9676C76.8606 12.3401 77.5248 12.7498 78.1146 13.1347C78.7043 13.5196 79.3561 13.892 79.9769 14.2769C80.617 14.6229 81.2386 15.0021 81.8392 15.4129L81.7336 15.5991C81.535 15.6488 81.4046 15.5122 81.2619 15.4377C80.3679 14.9473 79.4802 14.4445 78.5801 13.9603C77.1855 13.1947 75.766 12.4725 74.3217 11.7938C74.2347 11.7519 74.1456 11.7147 74.0547 11.6821C73.9995 11.6979 73.9518 11.7328 73.9199 11.7805C73.8881 11.8283 73.8743 11.8858 73.8809 11.9428C73.825 12.7684 73.7692 13.6003 73.7257 14.4259C73.6305 16.2096 73.5829 17.9953 73.5829 19.7831C73.6209 19.9752 73.5855 20.1746 73.4836 20.3418L73.2974 20.3418C73.1956 20.1296 73.163 19.8907 73.2043 19.659C73.2043 18.7278 73.2043 17.7966 73.167 16.8531C73.0987 15.2205 72.9994 13.5878 72.9063 11.9552C72.9007 11.8787 72.884 11.8034 72.8566 11.7317C72.6704 11.6386 72.5463 11.7317 72.4159 11.8124C70.537 12.7063 68.6892 13.6665 66.8724 14.6928C66.3013 15.0156 65.724 15.3136 65.1777 15.624C65.1243 15.6204 65.0738 15.5988 65.0343 15.5627C64.9948 15.5266 64.9688 15.4782 64.9604 15.4253C65.1526 15.2338 65.3776 15.0782 65.6247 14.966C67.487 13.8672 69.3493 12.725 71.1371 11.5207C71.522 11.2662 71.9131 11.0116 72.2793 10.7261C71.1467 9.81374 69.9427 8.99376 68.6789 8.27404C67.4373 7.5167 66.1958 6.76558 64.9915 6.02686C64.9757 5.98175 64.9757 5.93261 64.9915 5.88751C65.0073 5.8424 65.0379 5.80401 65.0784 5.77858C65.1839 5.74133 65.2708 5.80958 65.3639 5.85924C66.0902 6.25653 66.8103 6.66624 67.5366 7.06353C69.1631 7.95123 70.7957 8.81411 72.5028 9.59628C72.5959 9.63974 72.6952 9.67698 72.7821 9.71423C72.8337 9.6929 72.8768 9.65523 72.9048 9.60701C72.9329 9.55878 72.9443 9.50266 72.9373 9.4473C72.987 8.65893 73.0491 7.87677 73.0863 7.08839C73.1794 5.26333 73.2415 3.43825 73.2353 1.60699C73.2353 1.43938 73.2353 1.26558 73.2353 1.11659C73.2353 0.967607 73.4029 0.955196 73.5146 1.0421C73.6264 1.12901 73.5705 1.11038 73.5705 1.14762C73.5705 1.97945 73.5705 2.80508 73.6202 3.6307C73.6574 4.97156 73.7071 6.3062 73.763 7.64706C73.763 8.21817 73.8437 8.78928 73.8871 9.36039C73.8871 9.46592 73.9244 9.56526 73.9368 9.65217C74.1044 9.75149 74.2099 9.65215 74.3154 9.59628C76.2398 8.68996 78.1145 7.69674 79.9706 6.66006C80.4362 6.39933 80.9018 6.14482 81.3674 5.89031C81.4729 5.82823 81.5784 5.73511 81.715 5.76615C81.7559 5.79302 81.7875 5.83194 81.8053 5.87754C81.8231 5.92314 81.8262 5.97316 81.8143 6.02065C79.3313 7.52912 76.842 8.98793 74.421 10.7261ZM73.5891 10.366C73.4898 9.6149 73.5891 8.89483 73.5084 8.18095L73.3905 6.10756C73.3222 6.57314 73.3098 7.03872 73.285 7.50429L73.2167 8.90724C73.2338 9.37391 73.2109 9.84119 73.1484 10.304C72.8716 10.2253 72.608 10.1061 72.3662 9.95013C72.1055 9.81976 71.851 9.65836 71.5903 9.51558C71.3295 9.3728 71.1061 9.25486 70.8578 9.13071C70.6158 8.96504 70.3402 8.8548 70.0508 8.80789C70.327 9.05028 70.6313 9.25869 70.9571 9.42866C71.2985 9.63973 71.6461 9.84458 71.9876 10.0494C72.3336 10.2142 72.657 10.4228 72.9497 10.6702C72.6952 10.8316 72.4655 10.9806 72.2297 11.1234L71.522 11.5455C71.3047 11.6759 71.0874 11.8124 70.8702 11.949C70.6529 12.0856 70.3984 12.2346 70.1687 12.396C69.9179 12.5096 69.7032 12.69 69.5479 12.9174C70.1687 12.5698 70.7895 12.2594 71.3668 11.9614C71.9526 11.605 72.5624 11.2897 73.1919 11.0178C73.1919 11.7876 73.2229 12.5077 73.2477 13.2216C73.2726 13.9355 73.3284 14.6121 73.3657 15.3012C73.4402 14.5997 73.4712 13.9044 73.5209 13.203C73.5705 12.5015 73.5209 11.7628 73.5829 11.0489C73.7427 11.0575 73.8962 11.1137 74.0237 11.2103L76.8916 12.7436C76.9723 12.787 77.0655 12.905 77.2269 12.7995C76.6495 12.4332 76.0908 12.0856 75.5384 11.7317C74.9859 11.3779 74.3713 11.0737 73.825 10.6702C73.9868 10.4817 74.1882 10.3312 74.4148 10.2295C74.6072 10.0991 74.8121 9.99358 75.0355 9.87564L75.6563 9.50319C75.855 9.37904 76.0598 9.27348 76.246 9.13071C76.4323 8.98793 76.6619 8.97553 76.7364 8.67756C75.6066 9.21763 74.6445 9.83838 73.5954 10.366L73.5891 10.366Z" fill="#FFD28D"/>
<path d="M166.777 11.6705C165.413 12.2035 164.093 12.8427 162.829 13.5824C161.588 14.259 160.346 14.9481 159.105 15.6123C159.053 15.616 159.002 15.6002 158.962 15.568C158.922 15.5357 158.895 15.4895 158.887 15.4385C158.918 15.4013 158.943 15.333 158.993 15.3082C159.713 14.8612 160.445 14.4205 161.172 13.9859C162.792 13.0051 164.387 11.987 165.945 10.8821C166.05 10.8263 166.134 10.7365 166.181 10.6275C165.393 10.1061 164.605 9.56604 163.804 9.0508C163.003 8.53556 162.153 8.00169 161.321 7.49266C160.489 6.98363 159.669 6.53049 158.869 6.00284L158.956 5.81658C159.08 5.74208 159.173 5.81658 159.26 5.86003L161.364 7.05811C162.96 7.95202 164.592 8.77764 166.237 9.54119C166.38 9.61568 166.523 9.73987 166.703 9.69021C166.883 9.64055 166.808 9.46052 166.814 9.33636C166.877 8.28106 166.92 7.21334 166.988 6.15803C167.088 4.66818 167.088 3.17833 167.1 1.6947C167.069 1.4843 167.097 1.2693 167.181 1.07393C167.201 1.05888 167.225 1.04818 167.249 1.04252C167.274 1.03686 167.3 1.03635 167.325 1.041C167.35 1.04566 167.374 1.05537 167.395 1.06957C167.416 1.08377 167.434 1.10214 167.448 1.12356C167.486 1.35948 167.498 1.59885 167.485 1.83746C167.485 2.73137 167.485 3.62528 167.522 4.51919C167.59 6.15181 167.69 7.78441 167.777 9.42324C167.786 9.5012 167.803 9.57814 167.826 9.65296C168.031 9.7647 168.168 9.6219 168.311 9.55362C169.937 8.77145 171.551 7.95203 173.134 7.07054L175.487 5.76073C175.636 5.76073 175.691 5.829 175.716 5.94074C175.741 6.05247 175.66 6.04628 175.611 6.07111C174.891 6.51806 174.158 6.95261 173.432 7.39335C171.812 8.37417 170.216 9.38603 168.658 10.4662C168.577 10.522 168.503 10.5903 168.391 10.6772C169.633 11.5277 170.812 12.3222 172.041 13.0796C173.27 13.8369 174.524 14.588 175.71 15.3268C175.71 15.4633 175.673 15.5316 175.543 15.5751C175.298 15.4725 175.062 15.3521 174.835 15.215C172.724 14.0232 170.595 12.8747 168.404 11.8318C168.255 11.7573 168.093 11.7015 167.938 11.6394C167.938 11.6394 167.901 11.6394 167.87 11.6394C167.839 11.6394 167.777 11.8567 167.77 11.9808C167.708 13.0858 167.665 14.1908 167.59 15.2895C167.491 16.7359 167.504 18.1823 167.485 19.6349C167.504 19.8439 167.483 20.0546 167.423 20.2557C167.4 20.2722 167.374 20.2836 167.347 20.2892C167.32 20.2947 167.291 20.2942 167.264 20.2877C167.237 20.2812 167.212 20.2689 167.19 20.2515C167.168 20.2342 167.15 20.2123 167.137 20.1874C167.098 19.9578 167.086 19.7246 167.1 19.4921C167.1 18.6231 167.1 17.7478 167.063 16.8787C166.995 15.2212 166.895 13.5638 166.808 11.9125C166.802 11.8314 166.791 11.7506 166.777 11.6705ZM167.143 11.0497C167.143 12.5023 167.243 13.9239 167.317 15.3516C167.347 15.2066 167.362 15.0589 167.361 14.9109L167.491 11.4035C167.491 11.2918 167.441 11.149 167.621 11.0621L167.944 11.2235C168.838 11.7077 169.736 12.1898 170.638 12.6699C170.713 12.7133 170.794 12.8127 170.924 12.6699C170.396 12.3347 169.881 11.9994 169.353 11.6766C168.826 11.3538 168.304 11.0559 167.727 10.6896L168.453 10.2241L169.167 9.80194C169.384 9.66537 169.602 9.52879 169.819 9.39843C170.036 9.26806 170.291 9.10668 170.52 8.95149C170.769 8.83112 170.982 8.64952 171.141 8.42381C170.483 8.77144 169.9 9.08185 169.316 9.37982C168.728 9.73461 168.119 10.0518 167.491 10.3296C167.491 9.55983 167.491 8.83973 167.429 8.11964C167.367 7.39955 167.355 6.73531 167.317 6.04626C167.243 6.74773 167.206 7.4492 167.162 8.14446C167.119 8.83972 167.162 9.58466 167.094 10.2923C166.933 10.2879 166.779 10.2312 166.653 10.1309C165.697 9.6219 164.741 9.10668 163.785 8.60386C163.704 8.56041 163.611 8.42383 163.462 8.5604L166.877 10.6772C166.355 11.0683 165.796 11.298 165.287 11.658C164.74 11.9744 164.217 12.3312 163.723 12.7257C163.964 12.6706 164.195 12.5762 164.406 12.4464C164.629 12.3285 164.853 12.2043 165.076 12.0802C165.3 11.956 165.492 11.8691 165.697 11.7511C165.902 11.6332 166.138 11.4904 166.361 11.3787C166.602 11.2315 166.867 11.1265 167.143 11.0683L167.143 11.0497Z" fill="#FFD28D"/>
<path d="M41.5927 9.76641C42.3066 9.41257 42.9584 9.10221 43.604 8.77941C44.2496 8.45661 44.889 8.12137 45.5284 7.78616C46.1678 7.45094 46.801 7.10333 47.4342 6.7557C48.0674 6.40807 48.6757 6.02939 49.2965 5.73763C49.3497 5.76091 49.3928 5.80258 49.4179 5.855C49.443 5.90743 49.4484 5.96713 49.4331 6.02319C46.9996 7.49442 44.5352 8.947 42.2197 10.5858C42.1763 10.7783 42.3128 10.8031 42.3873 10.8528C44.1876 12.0943 46.0333 13.2717 47.9246 14.3849C48.4336 14.6891 48.9364 15.0057 49.402 15.2851C49.4641 15.4278 49.4393 15.5023 49.3586 15.552C49.2779 15.6016 49.2717 15.552 49.2406 15.552C48.6199 15.2292 48.0363 14.9312 47.4466 14.5774C45.6836 13.5883 43.8916 12.6592 42.0707 11.7901C41.9342 11.728 41.8038 11.666 41.6734 11.6101C41.623 11.6312 41.5807 11.6678 41.5528 11.7148C41.5248 11.7618 41.5127 11.8165 41.5183 11.8708C41.4686 12.6592 41.4065 13.4414 41.3693 14.2297C41.2762 16.0548 41.2141 17.8799 41.2203 19.7111C41.2203 19.8974 41.2203 20.0836 41.1892 20.2264C41.176 20.2499 41.1579 20.2703 41.1362 20.2864C41.1146 20.3025 41.0897 20.3138 41.0634 20.3196C41.0371 20.3255 41.0098 20.3257 40.9833 20.3204C40.9569 20.315 40.9319 20.3041 40.9099 20.2885C40.8371 20.0729 40.8137 19.8438 40.8416 19.618C40.8416 18.6993 40.8416 17.7557 40.7982 16.8742C40.7299 15.6017 40.7423 14.3229 40.6119 13.0565C40.5747 12.6716 40.5747 12.2867 40.5499 11.9081C40.5545 11.85 40.5475 11.7915 40.5294 11.7361C40.5113 11.6807 40.4824 11.6294 40.4443 11.5853C37.8185 12.7833 35.3044 14.1987 32.8151 15.5768C32.6661 15.5768 32.6226 15.4961 32.6164 15.403C32.6102 15.3099 32.7406 15.2354 32.8337 15.1795C33.8642 14.5588 34.9133 13.938 35.9375 13.3172C37.1232 12.5661 38.2902 11.7901 39.4697 11.0266C39.6063 10.9397 39.7428 10.8341 39.8794 10.7348C39.7925 10.5237 39.6125 10.443 39.4573 10.3375C37.9509 9.30703 36.4135 8.32211 34.845 7.38268L32.6288 6.04801C32.6129 5.99589 32.616 5.93979 32.6376 5.88975C32.6592 5.83971 32.6979 5.799 32.7468 5.77487C32.9796 5.84976 33.201 5.95629 33.4048 6.09147C34.5967 6.74328 35.7823 7.40748 36.9866 8.04687C37.9612 8.56211 38.9607 9.04012 39.9477 9.53673C40.0967 9.61122 40.2519 9.6733 40.3884 9.73538C40.5374 9.6733 40.5374 9.56156 40.5436 9.45603C40.5995 8.60557 40.6554 7.76134 40.6988 6.91089C40.7982 5.1479 40.8416 3.3849 40.8416 1.61571C40.8416 1.4481 40.8416 1.28051 40.8416 1.13153C40.8416 0.982544 41.0092 0.9701 41.121 1.06321C41.1796 1.15076 41.2039 1.25687 41.1892 1.36121C41.1892 1.98198 41.1892 2.60275 41.1892 3.22352C41.2327 4.69474 41.2761 6.15974 41.3382 7.62475C41.3382 8.24552 41.4189 8.86629 41.4686 9.48706C41.5244 9.51189 41.5555 9.5926 41.5927 9.76641ZM37.3405 8.52487C37.834 8.91038 38.3524 9.26293 38.8924 9.58019C39.4387 9.94023 40.0408 10.2009 40.5436 10.6106C40.4754 10.8093 40.3015 10.8217 40.1898 10.9024C40.0781 10.9831 39.9415 11.0638 39.8111 11.1445C39.6808 11.2252 39.5877 11.2687 39.4821 11.337L39.0973 11.5667L38.7186 11.8026C38.5944 11.8833 38.4703 11.964 38.3399 12.0384L38.0171 12.2371C37.8867 12.3178 37.7626 12.3985 37.6447 12.4854C37.4976 12.556 37.3746 12.6682 37.2908 12.8082C37.6491 12.6589 37.9974 12.4868 38.3337 12.2929L40.5188 11.1073C40.6057 11.0638 40.6926 10.9893 40.8416 11.1073C40.8416 11.7839 40.8727 12.4792 40.9037 13.1806C40.9347 13.8821 40.9782 14.5774 41.0154 15.2788C41.0561 15.0931 41.079 14.904 41.0837 14.714L41.2079 11.399C41.2079 11.2811 41.1644 11.1383 41.3072 11.0576C41.45 10.9769 41.5493 11.1383 41.6548 11.1942C42.5901 11.6991 43.5275 12.1998 44.4669 12.6965C44.5414 12.7399 44.6221 12.8392 44.7587 12.6965L41.4624 10.6603C42.0087 10.2382 42.586 9.97128 43.1136 9.62365C43.6413 9.27602 44.231 8.96561 44.7587 8.54969C44.56 8.48141 44.4483 8.61799 44.3241 8.68007C43.3868 9.17668 42.4618 9.68571 41.5183 10.1885C41.4376 10.2382 41.3569 10.3375 41.2265 10.2382L41.2265 10.0023L41.1148 6.7557L41.0837 6.05422C40.9968 6.75569 40.9658 7.45096 40.9161 8.15243C40.8664 8.8539 40.9161 9.54913 40.8478 10.263C40.5299 10.1781 40.2279 10.0418 39.9539 9.85954C39.6684 9.71677 39.3952 9.54916 39.1159 9.39397C38.8365 9.23877 38.5261 9.05874 38.2158 8.91596C37.942 8.75459 37.6475 8.63135 37.3405 8.54969L37.3405 8.52487Z" fill="#FFD28D"/>
<path d="M105.914 20.2716C105.827 20.3089 105.752 20.3213 105.647 20.1909L105.647 19.4894C105.647 18.5955 105.647 17.7017 105.609 16.8078C105.541 15.1751 105.442 13.5425 105.355 11.9099C105.346 11.8318 105.33 11.7549 105.305 11.6802C105.15 11.5933 105.038 11.6802 104.933 11.736C103.691 12.3568 102.419 12.9776 101.177 13.6356C100.159 14.1695 99.1658 14.7406 98.1602 15.2931C97.9739 15.3986 97.7815 15.4855 97.6139 15.5724C97.5663 15.5693 97.521 15.5505 97.4851 15.5191C97.4492 15.4877 97.4247 15.4454 97.4153 15.3986C97.4649 15.2372 97.6201 15.2 97.7443 15.1255C98.9237 14.4054 100.109 13.7039 101.283 12.9652C102.357 12.2824 103.412 11.5685 104.48 10.8608C104.583 10.8125 104.663 10.7256 104.703 10.6187C104.113 10.2214 103.517 9.81167 102.915 9.41438C102.313 9.01708 101.674 8.6322 101.084 8.24733C100.494 7.86245 99.8425 7.48998 99.2217 7.11131C98.6009 6.73264 97.9801 6.40987 97.3594 5.97533L97.4463 5.79528C97.6015 5.72079 97.7008 5.79529 97.8063 5.8822C98.7437 6.39123 99.6686 6.91266 100.6 7.42169C102.003 8.17903 103.424 8.90123 104.864 9.58821C104.958 9.63166 105.057 9.66891 105.138 9.69994C105.218 9.73098 105.305 9.55715 105.311 9.44541L105.467 6.96233C105.56 5.18072 105.609 3.39291 105.609 1.6113C105.578 1.42385 105.604 1.23116 105.684 1.05881C105.708 1.04567 105.733 1.03735 105.76 1.0343C105.787 1.03124 105.814 1.03354 105.84 1.04104C105.866 1.04854 105.891 1.06107 105.912 1.07798C105.933 1.09489 105.95 1.1158 105.963 1.13951C105.963 1.33816 105.963 1.58647 105.963 1.84099C105.963 2.73489 105.963 3.6288 106 4.5165C106.069 6.15533 106.168 7.78797 106.255 9.42059C106.267 9.49801 106.284 9.57469 106.305 9.65027C106.491 9.7496 106.615 9.65027 106.739 9.56957L110.16 7.85003C110.368 7.71654 110.594 7.61212 110.83 7.53964C111.023 7.6638 110.979 7.80039 110.911 7.99283C109.589 8.84949 108.21 9.68753 106.863 10.6683C108.198 11.6305 109.57 12.4748 110.886 13.3252C110.991 13.5114 111.004 13.648 110.886 13.7908C110.49 13.6591 110.112 13.4776 109.762 13.2507C109.396 13.0831 109.042 12.8845 108.682 12.6982C108.322 12.512 107.925 12.3196 107.54 12.1333C107.155 11.9471 106.814 11.7857 106.478 11.6243C106.42 11.6363 106.368 11.6696 106.332 11.7177C106.297 11.7659 106.28 11.8255 106.286 11.885L106.137 14.3681C106.038 16.1497 105.994 17.9375 105.994 19.7253C106.03 19.9113 106.001 20.1039 105.914 20.2716ZM109.371 12.7044C108.39 11.9533 107.304 11.3636 106.267 10.6807C106.826 10.2586 107.422 9.97308 107.968 9.61924C108.515 9.2654 109.111 8.89294 109.682 8.5329C109.46 8.54635 109.245 8.61923 109.061 8.74394C108.868 8.83084 108.688 8.94882 108.502 9.04814C108.316 9.14747 108.086 9.25918 107.881 9.37092L107.261 9.70616C107.081 9.81169 106.894 9.92343 106.702 10.0165C106.518 10.1526 106.306 10.2459 106.081 10.2897L105.907 6.00636C105.82 6.71404 105.789 7.42792 105.74 8.13559C105.69 8.84327 105.74 9.56959 105.659 10.3269C105.038 10.0476 104.467 9.67511 103.884 9.38335C103.298 9.04831 102.693 8.74977 102.071 8.48944C103.133 9.29023 104.3 9.9172 105.442 10.6559C104.927 11.0532 104.368 11.3139 103.859 11.6491C103.314 11.9634 102.795 12.3204 102.307 12.7169C102.867 12.4788 103.414 12.2115 103.946 11.9161C104.517 11.6367 105.032 11.258 105.634 11.0284C105.699 11.1435 105.725 11.2761 105.709 11.4071L105.814 14.4674L105.858 15.3179C105.932 14.6226 105.982 13.9212 106.007 13.2197C106.032 12.5182 106.044 11.7795 106.069 10.9725C107.168 11.5747 108.229 12.2202 109.371 12.7044Z" fill="#FFD28D"/>
</svg>
