<svg width="32" height="336" viewBox="0 0 32 336" fill="none"
    xmlns="http://www.w3.org/2000/svg">
    <path
        d="M15.6669 12.2001C16.4169 11.0901 17.0669 10.1301 17.6669 9.2001C18.2669 8.2701 18.9269 7.25009 19.5469 6.26009C20.1669 5.27009 20.7569 4.26009 21.3669 3.26009C21.9769 2.26009 22.5069 1.26009 23.2169 0.260093L23.4969
            0.450096C23.5969 0.740096 23.3969 0.920079 23.2869 1.12008L20.9069 5.44009C19.6869 7.70009 18.4869 9.9701 17.4069 12.3001C17.3269 12.4801 17.2568 12.6701 17.1968 12.8201C17.2263 12.9106 17.2863 12.988 17.3666 13.0391C17.4469
            13.0902 17.5424 13.1117 17.6368 13.1001L21.7369 13.3501C24.5469 13.5001 27.3469 13.5701 30.1569 13.5701C30.4487 13.5364 30.7442 13.5602 31.0269 13.6401C31.0949 13.6834 31.1433 13.7514 31.162 13.8298C31.1807 13.9082
            31.1681 13.9908 31.1269 14.0601C30.7818 14.2009 30.4043 14.2424 30.0369 14.1801C28.7069 14.1801 27.3669 14.1801 26.0369 14.1801C23.2669 14.3001 20.4969 14.4601 17.7269 14.6001C17.6368 14.5889 17.5453 14.5994 17.46 14.6307C17.3748
            14.662 17.2983 14.7132 17.2369 14.7801C17.1369 15.0501 17.3468 15.2701 17.4568 15.5101C18.6868 18.1501 20.0568 20.7101 21.4568 23.2701L23.1469 26.3201C23.2969 26.5901 23.4269 26.8701 23.5469 27.1101C23.5308 27.1913
            23.4872 27.2645 23.4234 27.3173C23.3596 27.3701 23.2796 27.3994 23.1968 27.4001C22.8925 27.0451 22.6308 26.6558 22.4169 26.2401C20.6669 23.2901 18.8869 20.3701 16.9769 17.5201C16.5569 16.9001 16.1369 16.2801 15.7169
            15.6801C15.3769 15.6801 15.3069 15.9501 15.1769 16.1301C13.4469 18.6001 11.8469 21.1301 10.2769 23.7301L8.27686 27.0701C8.20686 27.1801 8.12689 27.2901 8.06689 27.3701C8.00689 27.4501 7.74688 27.3701 7.67688 27.1801C7.74434
            26.8501 7.88437 26.5393 8.08685 26.2701C9.84685 23.1768 11.5135 20.0368 13.0869 16.8501C13.4269 16.1801 13.7269 15.5001 14.0269 14.8501C13.9817 14.764 13.9119 14.6934 13.8264 14.6471C13.7409 14.6008 13.6436 14.5809
            13.5469 14.5901L9.02686 14.3201C6.32686 14.1601 3.61687 14.1301 0.91687 14.1101C0.605344 14.1694 0.282865 14.1162 0.00683594 13.9601V13.7001C0.166836 13.4801 0.386853 13.5201 0.586853 13.5101C1.88685 13.5101 3.18688
            13.5101 4.48688 13.4601C6.88688 13.4001 9.27688 13.3201 11.6769 13.1301C12.2169 13.1301 12.7669 13.0801 13.3169 13.0401C13.5527 13.0692 13.7918 13.0311 14.0068 12.9301C14.0968 12.7001 13.9469 12.5301 13.8569 12.3501C12.3769
            9.26342 10.8002 6.22677 9.12689 3.2401C8.70689 2.4901 8.29684 1.7401 7.88684 0.990104C7.78684 0.810104 7.64689 0.650107 7.68689 0.430107C7.72689 0.210107 7.87686 0.240082 8.09686 0.280082C9.28686 2.29008 10.5069 4.29009
            11.7369 6.29009C12.9669 8.29009 14.1869 10.2201 15.6669 12.2001ZM14.9468 14.2601C14.9468 14.6901 14.7069 14.9401 14.5569 15.2601C14.4069 15.5801 14.2269 15.8601 14.0569 16.1601L13.5768 17.0601L13.0469 18.0601L12.5669
            18.9701C12.3466 19.3138 12.197 19.6979 12.1269 20.1001C12.4669 19.6001 12.6869 19.3101 12.8769 19.0001C13.7069 17.6601 14.5169 16.3101 15.3469 15.0001C15.4269 14.8601 15.4968 14.6901 15.7668 14.7301L16.7668 16.3601C17.0868
            16.8901 17.3968 17.4201 17.7668 17.9401C18.0686 18.5027 18.4236 19.0351 18.8268 19.5301C18.9668 19.2401 18.8268 19.0901 18.6968 18.9201L16.4669 14.7601C16.3969 14.6201 16.2569 14.4801 16.3969 14.2701L23.2369 13.9901C22.0969
            13.8601 20.9469 13.8001 19.8069 13.7301C18.6669 13.6601 17.4968 13.7301 16.2668 13.6101C16.5411 12.9973 16.8482 12.3998 17.1869 11.8201C17.7369 10.8201 18.2868 9.7701 18.8268 8.7401C18.8508 8.71101 18.8682 8.67702 18.8777
            8.64056C18.8872 8.60409 18.8887 8.56599 18.882 8.52889C18.8754 8.49179 18.8607 8.45659 18.8391 8.42571C18.8175 8.39484 18.7894 8.36904 18.7568 8.35009C17.7568 9.98009 16.7568 11.6001 15.7568 13.2401C15.4368 13.0801
            15.3669 12.8001 15.2169 12.5801C15.0669 12.3601 14.9569 12.1801 14.8369 11.9701C14.7169 11.7601 14.5669 11.4901 14.4269 11.2601C14.2869 11.0301 14.1369 10.7901 13.9969 10.5601L13.5569 9.8601L13.1869 9.25008C13.0369
            9.02008 12.8969 8.78009 12.7369 8.57009C12.5981 8.28656 12.379 8.0501 12.1069 7.8901L12.5569 8.7701L14.8969 13.1101C14.9527 13.1928 14.9826 13.2903 14.9826 13.3901C14.9826 13.4899 14.9527 13.5874 14.8969 13.6701C12.6869
            13.6701 10.4468 13.8201 8.19684 13.9501C8.92684 14.0301 9.66685 14.0501 10.3969 14.0901L12.7568 14.2001C13.4881 14.1662 14.2209 14.1963 14.9468 14.2901V14.2601Z"
        fill="#FFD28D" />
    <path
        d="M15.6669 319.876C16.4169 318.766 17.0669 317.806 17.6669 316.876C18.2669 315.946 18.9269 314.926 19.5469 313.936C20.1669 312.946 20.7569 311.936 21.3669 310.936C21.9769 309.936 22.5069 308.936 23.2169 307.936L23.4969
            308.126C23.5969 308.416 23.3969 308.596 23.2869 308.796L20.9069 313.116C19.6869 315.376 18.4869 317.646 17.4069 319.976C17.3269 320.156 17.2568 320.346 17.1968 320.496C17.2263 320.586 17.2863 320.664 17.3666 320.715C17.4469
            320.766 17.5424 320.788 17.6368 320.776L21.7369 321.026C24.5469 321.176 27.3469 321.246 30.1569 321.246C30.4487 321.212 30.7442 321.236 31.0269 321.316C31.0949 321.359 31.1433 321.427 31.162 321.506C31.1807 321.584
            31.1681 321.667 31.1269 321.736C30.7818 321.877 30.4043 321.918 30.0369 321.856C28.7069 321.856 27.3669 321.856 26.0369 321.856C23.2669 321.976 20.4969 322.136 17.7269 322.276C17.6368 322.265 17.5453 322.275 17.46 322.306C17.3748
            322.338 17.2983 322.389 17.2369 322.456C17.1369 322.726 17.3468 322.946 17.4568 323.186C18.6868 325.826 20.0568 328.386 21.4568 330.946L23.1469 333.996C23.2969 334.266 23.4269 334.546 23.5469 334.786C23.5308 334.867
            23.4872 334.94 23.4234 334.993C23.3596 335.046 23.2796 335.075 23.1968 335.076C22.8925 334.721 22.6308 334.332 22.4169 333.916C20.6669 330.966 18.8869 328.046 16.9769 325.196C16.5569 324.576 16.1369 323.956 15.7169
            323.356C15.3769 323.356 15.3069 323.626 15.1769 323.806C13.4469 326.276 11.8469 328.806 10.2769 331.406L8.27686 334.746C8.20686 334.856 8.12689 334.966 8.06689 335.046C8.00689 335.126 7.74688 335.046 7.67688 334.856C7.74434
            334.526 7.88437 334.215 8.08685 333.946C9.84685 330.853 11.5135 327.713 13.0869 324.526C13.4269 323.856 13.7269 323.176 14.0269 322.526C13.9817 322.44 13.9119 322.369 13.8264 322.323C13.7409 322.277 13.6436 322.257
            13.5469 322.266L9.02686 321.996C6.32686 321.836 3.61687 321.806 0.91687 321.786C0.605344 321.845 0.282865 321.792 0.00683594 321.636V321.376C0.166836 321.156 0.386853 321.196 0.586853 321.186C1.88685 321.186 3.18688
            321.186 4.48688 321.136C6.88688 321.076 9.27688 320.996 11.6769 320.806C12.2169 320.806 12.7669 320.756 13.3169 320.716C13.5527 320.745 13.7918 320.707 14.0068 320.606C14.0968 320.376 13.9469 320.206 13.8569 320.026C12.3769
            316.939 10.8002 313.903 9.12689 310.916C8.70689 310.166 8.29684 309.416 7.88684 308.666C7.78684 308.486 7.64689 308.326 7.68689 308.106C7.72689 307.886 7.87686 307.916 8.09686 307.956C9.28686 309.966 10.5069 311.966
            11.7369 313.966C12.9669 315.966 14.1869 317.896 15.6669 319.876ZM14.9468 321.936C14.9468 322.366 14.7069 322.616 14.5569 322.936C14.4069 323.256 14.2269 323.536 14.0569 323.836L13.5768 324.736L13.0469 325.736L12.5669
            326.646C12.3466 326.99 12.197 327.374 12.1269 327.776C12.4669 327.276 12.6869 326.986 12.8769 326.676C13.7069 325.336 14.5169 323.986 15.3469 322.676C15.4269 322.536 15.4968 322.366 15.7668 322.406L16.7668 324.036C17.0868
            324.566 17.3968 325.096 17.7668 325.616C18.0686 326.178 18.4236 326.711 18.8268 327.206C18.9668 326.916 18.8268 326.766 18.6968 326.596L16.4669 322.436C16.3969 322.296 16.2569 322.156 16.3969 321.946L23.2369 321.666C22.0969
            321.536 20.9469 321.476 19.8069 321.406C18.6669 321.336 17.4968 321.406 16.2668 321.286C16.5411 320.673 16.8482 320.076 17.1869 319.496C17.7369 318.496 18.2868 317.446 18.8268 316.416C18.8508 316.387 18.8682 316.353
            18.8777 316.316C18.8872 316.28 18.8887 316.242 18.882 316.205C18.8754 316.168 18.8607 316.132 18.8391 316.101C18.8175 316.071 18.7894 316.045 18.7568 316.026C17.7568 317.656 16.7568 319.276 15.7568 320.916C15.4368 320.756
            15.3669 320.476 15.2169 320.256C15.0669 320.036 14.9569 319.856 14.8369 319.646C14.7169 319.436 14.5669 319.166 14.4269 318.936C14.2869 318.706 14.1369 318.466 13.9969 318.236L13.5569 317.536L13.1869 316.926C13.0369
            316.696 12.8969 316.456 12.7369 316.246C12.5981 315.962 12.379 315.726 12.1069 315.566L12.5569 316.446L14.8969 320.786C14.9527 320.869 14.9826 320.966 14.9826 321.066C14.9826 321.166 14.9527 321.263 14.8969 321.346C12.6869
            321.346 10.4468 321.496 8.19684 321.626C8.92684 321.706 9.66685 321.726 10.3969 321.766L12.7568 321.876C13.4881 321.842 14.2209 321.872 14.9468 321.966V321.936Z"
        fill="#FFD28D" />
    <path
        d="M14.0378 218.221C13.9687 218.125 13.8742 218.049 13.7647 218.003C13.6552 217.957 13.5351 217.943 13.4178 217.961C11.6378 217.861 9.85778 217.791 8.07778 217.671C5.75778 217.521 3.42778 217.531 1.07778 217.501C0.741122
            217.537 0.400626 217.503 0.0777839 217.401C0.0519206 217.366 0.0336642 217.325 0.0241646 217.282C0.0146649 217.239 0.0141016 217.195 0.0225471 217.151C0.0309927 217.108 0.0482521 217.067 0.0732368 217.031C0.0982216
            216.995 0.130416 216.964 0.16778 216.941C0.548303 216.884 0.933404 216.864 1.31777 216.881C2.71777 216.881 4.12777 216.881 5.52777 216.831C8.19777 216.711 10.8578 216.561 13.5278 216.411C13.653 216.399 13.7769 216.376
            13.8978 216.341C14.0678 216.001 13.8478 215.781 13.7378 215.551C12.4878 212.921 11.1478 210.331 9.73776 207.781L7.63778 203.991C7.63413 203.903 7.66259 203.818 7.71783 203.749C7.77307 203.681 7.85127 203.636 7.93777
            203.621C8.02145 203.663 8.09618 203.721 8.15777 203.791C8.87777 204.961 9.57778 206.131 10.2878 207.301C11.8744 209.968 13.5411 212.561 15.2878 215.081L15.5478 215.381C17.0251 213.575 18.3433 211.644 19.4878 209.611L23.1078
            203.671C23.1766 203.645 23.252 203.64 23.3235 203.658C23.3951 203.676 23.4594 203.715 23.5078 203.771C23.5878 203.951 23.5078 204.101 23.3878 204.241C22.7478 205.411 22.0978 206.581 21.4478 207.751C20.0178 210.361 18.6278
            212.991 17.3678 215.691L17.1677 216.151C17.2 216.234 17.2584 216.305 17.3342 216.351C17.41 216.398 17.499 216.419 17.5878 216.411C18.5878 216.481 19.6377 216.591 20.6577 216.621C23.6577 216.731 26.6577 216.911 29.6577
            216.881C30.1086 216.855 30.561 216.875 31.0078 216.941C31.0442 216.963 31.0758 216.991 31.1007 217.025C31.1257 217.059 31.1434 217.098 31.1527 217.139C31.1621 217.181 31.163 217.223 31.1552 217.265C31.1475 217.306 31.1313
            217.346 31.1078 217.381C31.0269 217.426 30.939 217.456 30.8477 217.471L26.9378 217.531C24.4378 217.531 21.9378 217.681 19.4478 217.871C18.9378 217.871 18.4477 217.921 17.9077 217.951C17.6672 217.935 17.4264 217.979
            17.2078 218.081C17.0478 218.301 17.2078 218.471 17.3078 218.641C18.5478 221.311 19.9178 223.911 21.3078 226.501C21.8978 227.581 22.5178 228.651 23.1078 229.731C23.2925 229.97 23.413 230.252 23.4578 230.551C23.3878 230.701
            23.2678 230.751 23.0478 230.731C20.6578 226.801 18.3078 222.791 15.6178 219.031C15.3078 219.031 15.2478 219.281 15.1378 219.441C13.1378 222.281 11.3278 225.211 9.55776 228.181L8.17776 230.461C8.0997 230.574 8.01278
            230.681 7.91778 230.781L7.64776 230.651C7.53776 230.451 7.64778 230.301 7.72778 230.161C8.36778 228.991 9.01778 227.821 9.66778 226.651C11.0978 224.071 12.4278 221.451 13.6678 218.801C13.9378 218.621 13.9378 218.421
            14.0378 218.221ZM12.1478 211.021L12.0078 211.121C12.4978 212.051 13.0078 212.981 13.4778 213.921C14.0447 214.872 14.5588 215.854 15.0178 216.861C14.7978 216.861 14.6278 216.911 14.4578 216.911L9.32778 217.101H8.08776C9.21776
            217.231 10.3378 217.311 11.4678 217.361L14.9478 217.451C14.9517 217.708 14.8669 217.959 14.7078 218.161C13.8878 219.701 13.0578 221.231 12.2478 222.781C12.1678 222.921 11.9478 223.081 12.1378 223.341C12.7178 222.421
            13.2778 221.521 13.8578 220.631C14.4378 219.741 14.9178 218.741 15.5578 217.881C15.8278 217.981 15.8978 218.181 16.0078 218.351C16.1178 218.521 16.2178 218.701 16.3278 218.881L16.6478 219.411C16.7478 219.581 16.8378
            219.761 16.9478 219.941L17.3378 220.551L17.6677 221.071C17.7778 221.241 17.8777 221.421 17.9777 221.601C18.0777 221.781 18.1978 221.951 18.3178 222.111C18.4378 222.271 18.4578 222.481 18.8178 222.491C18.3978 221.591
            17.9578 220.791 17.5178 219.991C17.0778 219.191 16.6378 218.371 16.1878 217.561C16.3709 217.441 16.591 217.392 16.8078 217.421L21.9378 217.241L23.0778 217.191C21.9378 217.051 20.8178 217.001 19.6878 216.921C18.5578
            216.841 17.4378 216.921 16.2778 216.801C16.43 216.263 16.6626 215.75 16.9678 215.281L18.6677 212.121C18.6911 212.093 18.7079 212.06 18.7166 212.025C18.7253 211.989 18.7258 211.952 18.7181 211.917C18.7104 211.881 18.6947
            211.847 18.6721 211.819C18.6495 211.79 18.6207 211.767 18.5878 211.751L17.1178 214.091C16.6556 214.917 16.1447 215.715 15.5878 216.481C14.9578 215.561 14.4678 214.631 13.9078 213.741L12.1478 211.021Z"
        fill="#FFD28D" />
    <path
        d="M15.49 119.744C14.75 120.854 14.09 121.814 13.49 122.744C12.89 123.674 12.23 124.744 11.61 125.694C10.99 126.644 10.39 127.694 9.77002 128.694C9.21261 129.725 8.60176 130.726 7.94 131.694L7.64001 131.524C7.56001
            131.204 7.77996 130.994 7.89996 130.764C8.68996 129.324 9.49997 127.894 10.28 126.444C11.5133 124.197 12.6767 121.911 13.77 119.584C13.8374 119.444 13.8975 119.3 13.95 119.154C13.9246 119.065 13.8683 118.988 13.7914
            118.937C13.7145 118.886 13.6218 118.863 13.53 118.874C12.2 118.784 10.86 118.694 9.52997 118.624C6.65664 118.471 3.77996 118.394 0.899963 118.394C0.590512 118.455 0.269395 118.398 0 118.234V117.934C0.341902 117.77 0.726649
            117.717 1.09998 117.784C2.59998 117.784 4.1 117.784 5.62 117.724C8.25 117.614 10.88 117.454 13.51 117.304C13.6333 117.295 13.7545 117.268 13.87 117.224C14.02 116.924 13.87 116.724 13.74 116.514C12.3 113.487 10.7533
            110.511 9.09998 107.584C8.57998 106.664 8.09998 105.734 7.59998 104.854C7.60573 104.768 7.64052 104.686 7.69867 104.623C7.75681 104.559 7.83486 104.517 7.91998 104.504C8.22857 104.814 8.47918 105.176 8.65997 105.574C10.43
            108.574 12.27 111.574 14.21 114.454C14.62 115.074 15.03 115.704 15.49 116.294C16.9597 114.469 18.2806 112.53 19.44 110.494C20.66 108.494 21.87 106.494 23.06 104.554C23.1327 104.529 23.2118 104.529 23.2845 104.554C23.3571
            104.579 23.419 104.629 23.46 104.694C23.52 104.864 23.41 105.004 23.33 105.154C22.69 106.324 22.03 107.484 21.39 108.654C19.96 111.274 18.57 113.904 17.31 116.654C17.24 116.804 17.18 116.964 17.12 117.104C17.1544 117.187
            17.215 117.256 17.2927 117.302C17.3704 117.347 17.4608 117.365 17.55 117.354C18.82 117.434 20.08 117.534 21.35 117.594C24.29 117.744 27.23 117.844 30.18 117.834C30.45 117.834 30.73 117.834 30.97 117.834C31.21 117.834
            31.23 118.104 31.09 118.284C30.95 118.464 30.98 118.374 30.92 118.374C29.58 118.374 28.25 118.374 26.92 118.454C24.76 118.514 22.61 118.594 20.45 118.684C19.53 118.684 18.61 118.814 17.69 118.884C17.52 118.884 17.36
            118.944 17.22 118.964C17.06 119.234 17.22 119.404 17.31 119.574C18.77 122.674 20.37 125.694 22.04 128.684C22.46 129.434 22.87 130.184 23.28 130.934C23.38 131.104 23.53 131.274 23.48 131.494C23.4367 131.56 23.374 131.611
            23.3005 131.639C23.2271 131.668 23.1465 131.673 23.07 131.654C20.64 127.654 18.29 123.644 15.49 119.744ZM16.07 118.404C17.28 118.244 18.44 118.404 19.59 118.274L22.93 118.084C22.18 117.974 21.43 117.954 20.68 117.914L18.42
            117.804C17.6682 117.831 16.9155 117.795 16.17 117.694C16.2967 117.248 16.4888 116.823 16.74 116.434C16.95 116.014 17.21 115.604 17.44 115.184C17.67 114.764 17.86 114.404 18.06 114.004C18.3269 113.614 18.5045 113.17
            18.58 112.704C18.1896 113.149 17.8538 113.639 17.58 114.164C17.24 114.714 16.91 115.274 16.58 115.824C16.3146 116.381 15.9785 116.902 15.58 117.374C15.32 116.964 15.08 116.594 14.85 116.214L14.17 115.074C13.96 114.724
            13.74 114.374 13.52 114.024C13.3 113.674 13.06 113.264 12.8 112.894C12.6169 112.49 12.3263 112.144 11.96 111.894C12.52 112.894 13.02 113.894 13.5 114.824C14.0741 115.768 14.582 116.75 15.02 117.764C13.78 117.764 12.62
            117.814 11.47 117.854C10.32 117.894 9.22999 117.984 8.12 118.044C9.25 118.164 10.37 118.214 11.5 118.294C12.63 118.374 13.82 118.294 14.97 118.394C14.9562 118.651 14.8656 118.899 14.71 119.104L12.24 123.724C12.17 123.854
            11.98 124.004 12.15 124.264C12.74 123.334 13.3 122.434 13.87 121.544C14.44 120.654 14.93 119.664 15.58 118.784C15.8837 119.044 16.1261 119.369 16.29 119.734C16.5 120.044 16.67 120.374 16.86 120.734L17.46 121.734C17.66
            122.054 17.83 122.384 18.06 122.684C18.29 122.984 18.31 123.354 18.79 123.474C17.92 121.654 16.92 120.104 16.07 118.414V118.404Z"
        fill="#FFD28D" />
    <path d="M13.9696 268.521C13.111 266.324 12.0812 264.197 10.8897 262.161C9.79967 260.161 8.68965 258.161 7.61965 256.161C7.61369 256.078 7.63922 255.996 7.69112 255.931C7.74303 255.867 7.81752 255.824 7.89968 255.811C7.95968
            255.861 8.06964 255.901 8.10964 255.981C8.82964 257.141 9.53964 258.321 10.2396 259.491C11.8196 262.101 13.4596 264.671 15.2396 267.181C15.3296 267.351 15.4741 267.484 15.6497 267.561C16.4897 266.291 17.3597 265.021
            18.1897 263.731C19.0197 262.441 19.8797 261.071 20.6997 259.731C21.5197 258.391 22.2496 257.071 23.0996 255.781L23.3997 255.921C23.5197 256.121 23.3997 256.271 23.3297 256.411L21.3997 259.801C19.9597 262.371 18.6297
            265.001 17.3997 267.651C17.2797 267.881 17.0796 268.111 17.1596 268.401C17.2396 268.691 17.5296 268.571 17.7296 268.581C19.4296 268.681 21.1496 268.751 22.8496 268.861C25.2496 269.021 27.6496 269.021 30.0396 269.041C30.3786
            268.991 30.7249 269.036 31.0396 269.171C31.0639 269.204 31.0811 269.242 31.0902 269.282C31.0994 269.322 31.1002 269.363 31.0927 269.404C31.0852 269.444 31.0695 269.482 31.0467 269.516C31.0238 269.55 30.9942 269.579
            30.9597 269.601C30.5796 269.663 30.194 269.683 29.8097 269.661C28.3697 269.661 26.9296 269.661 25.4896 269.721C22.8596 269.831 20.2297 269.991 17.5897 270.131C17.4641 270.146 17.3402 270.173 17.2196 270.211C17.0396
            270.541 17.2697 270.761 17.3797 270.991C18.6397 273.611 19.9597 276.211 21.3797 278.761L23.4896 282.551C23.4896 282.791 23.3797 282.881 23.1997 282.921C23.0197 282.961 23.0296 282.831 22.9896 282.751C22.2696 281.591
            21.5696 280.411 20.8596 279.241C19.2796 276.631 17.6496 274.061 15.9096 271.551C15.8196 271.421 15.7097 271.301 15.5697 271.121C14.1997 273.121 12.9197 275.021 11.6997 277.001C10.4797 278.981 9.26967 281.001 8.07967
            282.911C7.85967 282.911 7.74965 282.851 7.67965 282.641C7.84497 282.248 8.03884 281.867 8.25966 281.501C10.1797 278.101 12.0297 274.671 13.7097 271.141C13.8297 270.901 13.9197 270.641 14.0197 270.391C14.0197 270.391
            14.0197 270.331 14.0197 270.281C14.0197 270.231 13.6696 270.131 13.4696 270.121C11.6896 270.021 9.90967 269.951 8.13967 269.831C5.80967 269.671 3.47967 269.691 1.13967 269.661C0.803009 269.692 0.46362 269.658 0.139668
            269.561C0.113043 269.525 0.0946171 269.483 0.0857134 269.439C0.0768097 269.395 0.077626 269.35 0.0880938 269.306C0.0985616 269.262 0.118422 269.221 0.146321 269.186C0.174221 269.15 0.209492 269.122 0.249654 269.101C0.61944
            269.038 0.99525 269.018 1.36965 269.041C2.76965 269.041 4.17967 269.041 5.57967 268.981C8.24967 268.871 10.9197 268.711 13.5797 268.571C13.7104 268.561 13.8405 268.544 13.9696 268.521ZM14.9696 269.111C12.6296 269.111
            10.3396 269.271 8.03963 269.391C8.27321 269.439 8.51119 269.463 8.74965 269.461L14.3997 269.671C14.5797 269.671 14.8097 269.591 14.9497 269.881L14.6897 270.401C13.9097 271.841 13.133 273.288 12.3596 274.741C12.2896
            274.861 12.1296 274.991 12.3596 275.201C12.8996 274.351 13.4397 273.521 13.9597 272.671C14.4797 271.821 14.9596 270.981 15.5496 270.051L16.2996 271.221L16.9796 272.371C17.1996 272.721 17.4197 273.071 17.6297 273.421C17.8397
            273.771 18.0996 274.181 18.3496 274.551C18.5435 274.951 18.8361 275.295 19.1997 275.551C18.6397 274.491 18.1396 273.551 17.6596 272.611C17.0881 271.665 16.5771 270.683 16.1297 269.671C17.3697 269.671 18.5297 269.671
            19.6897 269.571C20.8497 269.471 21.9197 269.451 23.0297 269.391C21.8997 269.271 20.7697 269.211 19.6497 269.141C18.5297 269.071 17.3297 269.141 16.1897 269.031C16.1968 268.773 16.2881 268.523 16.4497 268.321C17.2697
            266.781 18.0996 265.241 18.9096 263.701C18.9796 263.571 19.1996 263.421 18.9796 263.181L15.5697 268.681C14.9397 267.841 14.5696 266.941 13.9896 266.121C13.4801 265.239 12.9052 264.397 12.2697 263.601C12.3586 263.99
            12.5105 264.362 12.7196 264.701C12.9096 265.061 13.1097 265.421 13.3097 265.781C13.5097 266.141 13.6497 266.451 13.8397 266.781C14.0297 267.111 14.2597 267.491 14.4397 267.851C14.6768 268.24 14.8459 268.666 14.9397
            269.111H14.9696Z" fill="#FFD28D" />
    <path
        d="M17.035 66.8607C17.605 68.0107 18.1049 69.0607 18.6249 70.1007C19.1449 71.1407 19.685 72.1707 20.225 73.2007C20.765 74.2307 21.3249 75.2507 21.8849 76.2707C22.4449 77.2907 23.055 78.2707 23.525 79.2707C23.4874 79.3565
            23.4203 79.4259 23.3359 79.4663C23.2514 79.5067 23.1552 79.5154 23.0649 79.4907C20.6949 75.5707 18.355 71.6007 15.715 67.8707C15.405 67.8007 15.365 68.0207 15.285 68.1407C13.285 71.0407 11.3883 74.0141 9.59496 77.0607C9.10496
            77.8807 8.59495 78.6907 8.14495 79.4407C7.91495 79.5407 7.79496 79.5007 7.71496 79.3707C7.63496 79.2407 7.71496 79.2307 7.71496 79.1807C8.23496 78.1807 8.71496 77.2407 9.28496 76.2907C10.8783 73.4507 12.375 70.564 13.775
            67.6307C13.875 67.4107 13.9749 67.2007 14.0649 66.9907C14.031 66.9095 13.9719 66.8413 13.8963 66.7963C13.8207 66.7513 13.7325 66.7318 13.6449 66.7407C12.3749 66.6607 11.115 66.5607 9.84496 66.5007C6.90496 66.3507 3.96494
            66.2507 1.01494 66.2607C0.714943 66.2607 0.414987 66.2607 0.184987 66.2107C0.147129 66.1894 0.114132 66.1603 0.0882466 66.1253C0.0623615 66.0904 0.0441491 66.0504 0.0347188 66.008C0.0252884 65.9656 0.024902 65.9216
            0.0335591 65.879C0.0422162 65.8364 0.0597049 65.7961 0.0849507 65.7607C0.432123 65.6434 0.801275 65.6058 1.16497 65.6507C2.64497 65.6507 4.16495 65.6507 5.58495 65.5807C7.63495 65.4707 9.69497 65.4907 11.735 65.2807C12.355
            65.2207 12.975 65.2207 13.585 65.1807C13.6786 65.1882 13.7727 65.177 13.862 65.1478C13.9512 65.1187 14.0338 65.072 14.105 65.0107C12.175 60.7807 9.89498 56.7307 7.67498 52.7207C7.67498 52.4807 7.80495 52.4107 7.95495
            52.4007C8.10495 52.3907 8.22493 52.6007 8.31493 52.7507C9.31493 54.4107 10.3149 56.1007 11.3149 57.7507C12.5249 59.6607 13.7749 61.5407 15.0049 63.4407C15.1449 63.6607 15.315 63.8807 15.475 64.1007C15.815 63.9607 15.945
            63.6707 16.115 63.4207C17.775 60.9941 19.3616 58.5174 20.8749 55.9907L23.025 52.4207C23.1089 52.395 23.1993 52.4 23.2799 52.4349C23.3605 52.4697 23.4261 52.532 23.465 52.6107C23.3443 52.9858 23.1727 53.3424 22.9549
            53.6707C21.9049 55.5907 20.835 57.5007 19.805 59.4407C18.975 61.0107 18.205 62.6207 17.405 64.2107C17.285 64.4507 17.185 64.7007 17.085 64.9207C17.185 65.1607 17.365 65.1607 17.535 65.1707C18.905 65.2607 20.2649 65.3507
            21.6349 65.4207C24.4749 65.5807 27.315 65.6507 30.165 65.6507C30.435 65.6507 30.7049 65.6507 30.9449 65.6507C31.1849 65.6507 31.205 65.9207 31.055 66.1007C30.914 66.1952 30.743 66.2344 30.5749 66.2107C29.5749 66.2107
            28.5749 66.2107 27.5749 66.2107C25.2049 66.2807 22.845 66.3507 20.485 66.4507C19.485 66.4507 18.485 66.5807 17.485 66.6607C17.445 66.7507 17.315 66.8007 17.035 66.8607ZM19.035 60.0107C18.4139 60.8058 17.846 61.6409
            17.335 62.5107C16.755 63.3907 16.335 64.3607 15.675 65.1707C15.355 65.0607 15.3349 64.7807 15.2049 64.6007C15.0749 64.4207 14.9449 64.2007 14.8149 63.9907C14.6849 63.7807 14.6149 63.6307 14.5049 63.4607L14.1349 62.8407L13.7549
            62.2307C13.6249 62.0307 13.4949 61.8307 13.3749 61.6207L13.055 61.1007C12.925 60.8907 12.795 60.6907 12.655 60.5007C12.5413 60.2639 12.3604 60.0656 12.1349 59.9307C12.3754 60.5079 12.6527 61.069 12.965 61.6107L14.8749
            65.1307C14.9449 65.2707 15.0649 65.4107 14.8749 65.6507C13.7849 65.6507 12.665 65.7007 11.535 65.7507C10.405 65.8007 9.28496 65.8707 8.15496 65.9307C8.4541 65.9963 8.75879 66.0331 9.06493 66.0407L14.405 66.2407C14.595
            66.2407 14.8249 66.1707 14.9549 66.4007C15.0849 66.6307 14.825 66.7907 14.735 66.9607C13.9216 68.4674 13.1149 69.9774 12.3149 71.4907C12.2449 71.6107 12.0849 71.7407 12.3149 71.9607L15.595 66.6507C16.275 67.5307 16.7049
            68.4607 17.2649 69.3107C17.8249 70.1607 18.325 71.1107 18.995 71.9607C19.105 71.6407 18.885 71.4607 18.785 71.2607C17.985 69.7507 17.165 68.2607 16.355 66.7407C16.275 66.6107 16.115 66.4807 16.275 66.2707H16.655L21.8849
            66.0907L23.0149 66.0407C21.8849 65.9007 20.7649 65.8507 19.6349 65.7707C18.5049 65.6907 17.385 65.7707 16.235 65.6607C16.3718 65.1485 16.5913 64.6622 16.8849 64.2207C17.1149 63.7607 17.3849 63.3207 17.6349 62.8707C17.8849
            62.4207 18.175 61.9207 18.405 61.4207C18.6649 60.9798 18.8634 60.5054 18.995 60.0107H19.035Z"
        fill="#FFD28D" />
    <path
        d="M0.11343 170.475C0.0534297 170.335 0.0334346 170.215 0.243435 170.045H1.37344C2.81344 170.045 4.25339 170.045 5.69339 169.985C8.32339 169.875 10.9534 169.715 13.5834 169.575C13.7091 169.561 13.8331 169.535 13.9534
            169.495C14.0934 169.245 13.9534 169.065 13.8634 168.895C12.8634 166.895 11.8634 164.845 10.8034 162.845C9.94343 161.205 9.02339 159.605 8.13339 157.985C7.96339 157.685 7.82344 157.375 7.68344 157.105C7.68851 157.029
            7.71865 156.956 7.76925 156.898C7.81986 156.84 7.88808 156.801 7.96341 156.785C8.2234 156.865 8.28341 157.115 8.40341 157.315C9.56341 159.215 10.6934 161.125 11.8834 163.015C12.9834 164.745 14.1334 166.445 15.2734 168.165C15.3511
            168.332 15.4912 168.461 15.6634 168.525C16.3034 167.575 16.9634 166.615 17.6034 165.645C18.2434 164.675 18.8634 163.645 19.4834 162.695C20.1034 161.745 20.7034 160.695 21.3134 159.695C21.9234 158.695 22.4434 157.695
            23.1434 156.695L23.4334 156.835C23.5534 157.085 23.4334 157.245 23.2934 157.415C22.4734 158.925 21.6334 160.415 20.8134 161.915C19.5934 164.175 18.4301 166.465 17.3234 168.785C17.2534 168.935 17.1934 169.095 17.1434
            169.225C17.0934 169.355 17.3734 169.495 17.5534 169.505L21.5534 169.755C24.4234 169.905 27.3034 169.985 30.1734 169.985C30.4754 169.934 30.7858 169.976 31.0634 170.105C31.0846 170.143 31.098 170.185 31.1029 170.228C31.1079
            170.272 31.1042 170.316 31.0921 170.357C31.08 170.399 31.0598 170.438 31.0326 170.472C31.0053 170.506 30.9716 170.534 30.9334 170.555C30.6134 170.555 30.2134 170.555 29.8034 170.555C28.3634 170.555 26.9234 170.555 25.4934
            170.615C22.8534 170.725 20.2234 170.885 17.5934 171.025C17.4687 171.045 17.3452 171.072 17.2234 171.105C17.0634 171.405 17.2234 171.605 17.3534 171.805L20.1234 177.315C20.3385 177.651 20.5067 178.014 20.6234 178.395C20.4234
            178.705 20.2034 178.635 19.8934 178.525C18.5134 176.395 17.1634 174.175 15.5834 172.005C14.0334 174.155 12.6734 176.365 11.3034 178.485C11.0034 178.655 10.7834 178.675 10.5534 178.485C10.7656 177.848 11.0579 177.239
            11.4234 176.675C11.6934 176.085 12.0134 175.515 12.3134 174.935C12.6134 174.355 12.9234 173.715 13.2234 173.095C13.5234 172.475 13.7834 171.925 14.0434 171.385C14.0241 171.291 13.9705 171.207 13.8929 171.15C13.8154
            171.092 13.7194 171.066 13.6234 171.075L9.62344 170.835C6.75344 170.675 3.87343 170.605 0.993435 170.605C0.693838 170.663 0.383653 170.617 0.11343 170.475ZM12.3034 176.045C13.5134 174.465 14.4634 172.715 15.5634 171.045C16.2434
            171.945 16.7034 172.905 17.2734 173.785C17.8434 174.665 18.4434 175.625 19.0234 176.545C19.0017 176.188 18.8843 175.842 18.6834 175.545C18.5434 175.235 18.3534 174.945 18.1934 174.645C18.0334 174.345 17.8534 173.975
            17.6734 173.645L17.1334 172.645C16.9634 172.355 16.7834 172.055 16.6334 171.745C16.4142 171.449 16.2639 171.107 16.1934 170.745L23.0934 170.465C21.9534 170.325 20.8034 170.275 19.6634 170.195C18.5234 170.115 17.3534
            170.195 16.1334 170.065C16.5834 169.065 17.1834 168.145 17.6534 167.205C18.1931 166.263 18.674 165.287 19.0934 164.285C17.8034 165.995 16.7934 167.875 15.6034 169.715C14.9634 168.885 14.5434 167.985 14.0034 167.165C13.4972
            166.288 12.922 165.452 12.2834 164.665C12.6669 165.567 13.0975 166.449 13.5734 167.305C14.0234 168.225 14.6334 169.055 15.0034 170.025C14.818 170.129 14.6043 170.171 14.3934 170.145L9.46341 170.315L8.09341 170.385C9.21341
            170.505 10.3434 170.585 11.4734 170.625C12.6034 170.665 13.7934 170.685 15.0934 170.725C14.1234 172.495 13.0834 174.205 12.3034 176.045Z"
        fill="#FFD28D" />
</svg> 