<svg xmlns="http://www.w3.org/2000/svg" width="58" height="77"
viewBox="0 0 58 77" fill="none">
<path opacity="0.6"
    d="M15.0278 9.87245L14.9322 9.86104L14.8392 9.88597C13.6707 10.1991 12.3723 11.3108 10.9471 13.0421L10.9353 13.0564L10.9245 13.0717C9.74588 14.7428 8.60221 16.5389 7.49331 18.4596C6.37766
20.3919 5.51182 22.2634 4.89941 24.0738L4.88943 24.1032L4.88319 24.1337C4.52007 25.9082 4.78861 27.337 6.03059 28.054L6.0839 28.0848L6.14308 28.1017C8.78548 28.8576 10.8811 31.669 12.2836 36.9031C13.8018 42.5689 13.5334
48.4581 11.4612 54.5839C9.38348 60.7256 6.08059 66.2661 1.54762 71.208L1.48601 71.2752L1.45207 71.3598C0.92539 72.6719 0.924508 73.905 1.53297 75.0011L1.54229 75.0178L1.55287 75.0339C1.83892 75.4671 2.22925 75.7695
2.71809 75.9094C3.19585 76.046 3.72568 76.0157 4.28373 75.8661L4.4175 75.8303L4.51377 75.7307C11.9311 68.0596 17.4298 59.2762 21.0061 49.3839C24.7651 39.1765 25.6153 30.1072 23.4969 22.2012C22.6784 19.1463 21.417 16.4694
19.7077 14.178C18.953 12.8877 18.1967 11.8722 17.4342 11.1513C16.6675 10.4264 15.8652 9.97232 15.0278 9.87245ZM47.7366 1.10816L47.641 1.09675L47.548 1.12167C46.3794 1.43478 45.0811 2.54653 43.6559 4.27776L43.644 4.29214L43.6333
4.30737C42.4547 5.97852 41.311 7.77462 40.2021 9.69528C39.0864 11.6276 38.2206 13.4991 37.6082 15.3095L37.5982 15.339L37.592 15.3695C37.2288 17.1439 37.4974 18.5727 38.7394 19.2897L38.7927 19.3205L38.8519 19.3374C41.4943
20.0933 43.5899 22.9047 44.9924 28.1388C46.5106 33.8046 46.2422 39.6938 44.1699 45.8196C42.0923 51.9613 38.7894 57.5019 34.2564 62.4437L34.1948 62.5109L34.1608 62.5955C33.6342 63.9076 33.6333 65.1407 34.2417 66.2368L34.2511
66.2536L34.2616 66.2696C34.5477 66.7028 34.938 67.0052 35.4269 67.1451C35.9046 67.2817 36.4345 67.2514 36.9925 67.1019L37.1263 67.066L37.2225 66.9664C44.6398 59.2954 50.1384 50.5121 53.7148 40.6199C57.4738 30.4124 58.3241
21.343 56.2057 13.4369C55.3872 10.3819 54.1258 7.70506 52.4165 5.4137C51.6618 4.1234 50.9055 3.10791 50.143 2.38696C49.3763 1.66212 48.5739 1.20803 47.7366 1.10816Z"
    stroke="#FFD28D" />
</svg>