<svg xmlns="http://www.w3.org/2000/svg" width="59" height="77"
    viewBox="0 0 59 77" fill="none">
    <path opacity="0.6"
        d="M43.5059 9.75789L43.6014 9.74557L43.6947 9.7696C44.8661 10.0715 46.1751 11.1708 47.6168 12.8883L47.6288 12.9025L47.6397 12.9177C48.8343 14.5775 49.9951 16.3625 51.1223 18.2725C52.2564 20.194
53.1402 22.0572 53.7699 23.8615L53.7801 23.8909L53.7867 23.9214C54.1668 25.6923 53.9119 27.1235 52.6769 27.8525L52.6239 27.8837L52.5648 27.9012C49.9298 28.6824 47.8612 31.5137 46.5089 36.761C45.045 42.4411 45.3698 48.3274
47.5006 54.4331C49.637 60.5546 52.9928 66.0633 57.5729 70.9616L57.6352 71.0281L57.6699 71.1124C58.2092 72.4194 58.2219 73.6524 57.6239 74.7543L57.6148 74.7711L57.6043 74.7873C57.3224 75.2232 56.935 75.5294 56.4476 75.6739C55.9711
75.8151 55.441 75.7898 54.8816 75.6457L54.7475 75.6111L54.6502 75.5125C47.1598 67.9127 41.5773 59.1824 37.9063 49.3248C34.0498 39.1539 33.1127 30.0931 35.1553 22.1672C35.9445 19.1045 37.1802 16.4157 38.8675 14.1081C39.6098
12.8106 40.3563 11.7879 41.1119 11.0597C41.8716 10.3275 42.6696 9.86578 43.5059 9.75789ZM10.7147 1.30727L10.8102 1.29495L10.9034 1.31898C12.0749 1.62088 13.3839 2.72014 14.8256 4.43765L14.8376 4.45192L14.8485 4.46704C16.043
6.12683 17.2039 7.91188 18.3311 9.82184C19.4652 11.7434 20.3489 13.6065 20.9787 15.4109L20.9889 15.4403L20.9954 15.4708C21.3755 17.2417 21.1207 18.6729 19.8856 19.4018L19.8326 19.4331L19.7736 19.4506C17.1386 20.2318
15.0699 23.0631 13.7177 28.3104C12.2538 33.9905 12.5786 39.8768 14.7094 45.9825C16.8458 52.104 20.2016 57.6127 24.7817 62.5109L24.844 62.5775L24.8787 62.6617C25.4179 63.9688 25.4306 65.2018 24.8327 66.3036L24.8235 66.3205L24.8131
66.3367C24.5312 66.7726 24.1438 67.0788 23.6563 67.2233C23.1799 67.3645 22.6498 67.3392 22.0904 67.195L21.9562 67.1605L21.859 67.0618C14.3686 59.4621 8.78613 50.7319 5.11517 40.8744C1.25858 30.7034 0.321434 21.6425
2.36404 13.7165C3.15331 10.6539 4.38898 7.96507 6.07629 5.65744C6.81859 4.35997 7.56507 3.33728 8.3207 2.60906C9.08042 1.87692 9.87835 1.41516 10.7147 1.30727Z"
        stroke="#FFD28D" />
</svg>